<svg width="134" height="31" viewBox="0 0 134 31" fill="none" xmlns="http://www.w3.org/2000/svg">
<path d="M60.1087 9.12624C59.7272 8.57312 59.2123 8.17258 58.5638 7.92463C57.9344 7.65761 57.2668 7.52409 56.5611 7.52409C56.1415 7.52409 55.7314 7.57178 55.3309 7.66714C54.9494 7.76251 54.5966 7.91509 54.2723 8.1249C53.9671 8.3347 53.7192 8.61126 53.5285 8.95458C53.3377 9.27882 53.2424 9.66982 53.2424 10.1276C53.2424 10.8142 53.4808 11.3387 53.9576 11.7011C54.4344 12.0635 55.0257 12.3782 55.7314 12.6452C56.4371 12.9123 57.2096 13.1697 58.0488 13.4177C58.888 13.6656 59.6605 14.009 60.3662 14.4476C61.0719 14.8863 61.6632 15.4681 62.14 16.1928C62.6168 16.9176 62.8552 17.8808 62.8552 19.0824C62.8552 20.1696 62.655 21.1232 62.2544 21.9434C61.8539 22.7445 61.3103 23.412 60.6237 23.9461C59.9561 24.4801 59.1741 24.8806 58.2777 25.1477C57.3812 25.4147 56.4371 25.5482 55.4453 25.5482C54.1865 25.5482 52.9753 25.3384 51.8119 24.9188C50.6484 24.4992 49.6471 23.7935 48.8079 22.8017L51.5258 20.1696C51.9645 20.8371 52.5367 21.3617 53.2424 21.7431C53.9671 22.1055 54.7301 22.2867 55.5311 22.2867C55.9507 22.2867 56.3704 22.2295 56.79 22.115C57.2096 22.0006 57.591 21.8289 57.9344 21.6001C58.2777 21.3712 58.5542 21.0851 58.764 20.7418C58.9738 20.3794 59.0787 19.9693 59.0787 19.5116C59.0787 18.7677 58.8403 18.1955 58.3635 17.795C57.8867 17.3944 57.2954 17.0607 56.5897 16.7936C55.884 16.5075 55.1115 16.2405 54.2723 15.9926C53.4331 15.7446 52.6606 15.4108 51.9549 14.9912C51.2492 14.5525 50.658 13.9803 50.1811 13.2746C49.7043 12.5499 49.4659 11.5867 49.4659 10.3851C49.4659 9.33604 49.6757 8.43007 50.0953 7.66714C50.534 6.90422 51.0966 6.2748 51.7833 5.7789C52.489 5.26393 53.29 4.88246 54.1865 4.63451C55.0829 4.38656 55.9984 4.26259 56.933 4.26259C58.0011 4.26259 59.0311 4.42471 60.0229 4.74895C61.0337 5.0732 61.9397 5.60724 62.7408 6.35109L60.1087 9.12624Z" fill="white"/>
<path d="M64.8785 14.2188V11.3006H67.7108V7.32383H71.144V11.3006H74.9205V14.2188H71.144V20.2268C71.144 20.9134 71.268 21.457 71.5159 21.8576C71.7829 22.2581 72.2979 22.4584 73.0608 22.4584C73.366 22.4584 73.6998 22.4297 74.0622 22.3725C74.4246 22.2962 74.7107 22.1818 74.9205 22.0292V24.9188C74.5581 25.0904 74.1099 25.2049 73.5758 25.2621C73.0608 25.3384 72.6031 25.3765 72.2025 25.3765C71.287 25.3765 70.5336 25.2716 69.9424 25.0618C69.3702 24.8711 68.9124 24.5755 68.5691 24.1749C68.2449 23.7553 68.016 23.2404 67.8825 22.63C67.768 22.0197 67.7108 21.314 67.7108 20.5129V14.2188H64.8785Z" fill="white"/>
<path d="M80.5329 19.3685C80.6473 20.3985 81.0479 21.1995 81.7345 21.7717C82.4211 22.3439 83.2508 22.63 84.2235 22.63C85.0818 22.63 85.7971 22.4584 86.3693 22.115C86.9605 21.7526 87.4755 21.3044 87.9142 20.7704L90.3746 22.63C89.5736 23.6218 88.6771 24.3275 87.6853 24.7471C86.6935 25.1667 85.654 25.3765 84.5669 25.3765C83.5369 25.3765 82.5642 25.2049 81.6487 24.8616C80.7332 24.5183 79.9416 24.0319 79.2741 23.4025C78.6065 22.7731 78.0725 22.0197 77.6719 21.1423C77.2905 20.2459 77.0997 19.2541 77.0997 18.1669C77.0997 17.0797 77.2905 16.0975 77.6719 15.2201C78.0725 14.3237 78.6065 13.5607 79.2741 12.9313C79.9416 12.3019 80.7332 11.8155 81.6487 11.4722C82.5642 11.1289 83.5369 10.9573 84.5669 10.9573C85.5205 10.9573 86.3883 11.1289 87.1703 11.4722C87.9714 11.7965 88.6485 12.2733 89.2016 12.9027C89.7738 13.5321 90.2125 14.3141 90.5177 15.2487C90.8419 16.1642 91.004 17.2228 91.004 18.4244V19.3685H80.5329ZM87.5709 16.7936C87.5518 15.7828 87.2371 14.9912 86.6268 14.419C86.0164 13.8278 85.1677 13.5321 84.0805 13.5321C83.0505 13.5321 82.2304 13.8278 81.6201 14.419C81.0288 15.0103 80.6664 15.8018 80.5329 16.7936H87.5709Z" fill="white"/>
<path d="M94.4578 3.4043H97.8909V25.0332H94.4578V3.4043Z" fill="white"/>
<path d="M102.103 3.4043H105.537V25.0332H102.103V3.4043Z" fill="white"/>
<path d="M118.247 23.145H118.161C117.665 23.927 117.036 24.4992 116.273 24.8616C115.51 25.2049 114.671 25.3765 113.755 25.3765C113.126 25.3765 112.506 25.2907 111.896 25.1191C111.304 24.9474 110.77 24.6899 110.293 24.3466C109.836 24.0033 109.464 23.5741 109.178 23.0592C108.892 22.5442 108.749 21.9434 108.749 21.2568C108.749 20.5129 108.882 19.8835 109.149 19.3685C109.416 18.8345 109.769 18.3958 110.208 18.0525C110.665 17.6901 111.19 17.404 111.781 17.1942C112.372 16.9844 112.983 16.8318 113.612 16.7364C114.261 16.622 114.909 16.5552 115.558 16.5361C116.206 16.498 116.816 16.4789 117.389 16.4789H118.247V16.107C118.247 15.2487 117.951 14.6098 117.36 14.1902C116.769 13.7515 116.015 13.5321 115.1 13.5321C114.375 13.5321 113.698 13.6656 113.069 13.9327C112.439 14.1806 111.896 14.5239 111.438 14.9626L109.635 13.1602C110.398 12.3782 111.285 11.8155 112.296 11.4722C113.326 11.1289 114.385 10.9573 115.472 10.9573C116.445 10.9573 117.265 11.0717 117.932 11.3006C118.6 11.5104 119.153 11.7869 119.592 12.1303C120.03 12.4736 120.364 12.8741 120.593 13.3319C120.841 13.7705 121.013 14.2188 121.108 14.6765C121.222 15.1343 121.289 15.5825 121.308 16.0212C121.327 16.4408 121.337 16.8127 121.337 17.137V25.0332H118.247V23.145ZM118.047 18.8821H117.331C116.855 18.8821 116.321 18.9012 115.729 18.9394C115.138 18.9775 114.575 19.0729 114.041 19.2255C113.526 19.359 113.088 19.5688 112.725 19.8549C112.363 20.1219 112.182 20.5034 112.182 20.9993C112.182 21.3235 112.248 21.6001 112.382 21.8289C112.535 22.0387 112.725 22.2199 112.954 22.3725C113.183 22.5251 113.441 22.6396 113.727 22.7158C114.013 22.7731 114.299 22.8017 114.585 22.8017C115.767 22.8017 116.635 22.5251 117.188 21.972C117.761 21.3998 118.047 20.6273 118.047 19.6546V18.8821Z" fill="white"/>
<path d="M125.217 11.3006H128.65V13.4749H128.707C129.088 12.6738 129.632 12.054 130.338 11.6153C131.043 11.1766 131.854 10.9573 132.77 10.9573C132.979 10.9573 133.18 10.9763 133.37 11.0145C133.58 11.0526 133.79 11.1003 134 11.1575V14.4763C133.714 14.4 133.428 14.3427 133.141 14.3046C132.874 14.2474 132.607 14.2188 132.34 14.2188C131.539 14.2188 130.891 14.3713 130.395 14.6765C129.918 14.9626 129.546 15.2964 129.279 15.6779C129.031 16.0593 128.86 16.4408 128.764 16.8222C128.688 17.2037 128.65 17.4898 128.65 17.6805V25.0332H125.217V11.3006Z" fill="white"/>
<path d="M31.6601 17.6387L23.1805 22.2755L18.5438 30.755L13.9071 22.2755L5.42749 17.6387L13.9071 13.002L18.5438 4.52246L23.1805 13.002L31.6601 17.6387Z" fill="white"/>
<path d="M10.8549 4.97514L7.34607 6.7339L5.42743 9.95028L3.50879 6.7339L0 4.97514L3.50879 3.21639L5.42743 0L7.34607 3.21639L10.8549 4.97514Z" fill="white"/>
</svg>
