<svg width="243" height="100" viewBox="0 0 243 100" fill="none" xmlns="http://www.w3.org/2000/svg">
<g clip-path="url(#clip0_287_39)">
<path d="M58.2792 52.1944L48.7075 57.4283L43.4736 67L38.2397 57.4283L28.668 52.1944L38.2397 46.9605L43.4736 37.3888L48.7075 46.9605L58.2792 52.1944Z" fill="#FFC667"/>
<path d="M34.7944 37.8993L30.8337 39.8846L28.668 43.5153L26.5022 39.8846L22.5415 37.8993L26.5022 35.9141L28.668 32.2834L30.8337 35.9141L34.7944 37.8993Z" fill="#FFC667"/>
</g>
<path d="M90.6396 66.1338C88.493 66.1338 86.5695 65.7854 84.869 65.0884C83.1684 64.3915 81.8024 63.36 80.7709 61.994C79.7673 60.628 79.2377 58.9832 79.1819 57.0597H86.7925C86.904 58.1469 87.2804 58.9832 87.9216 59.5687C88.5627 60.1262 89.3991 60.405 90.4305 60.405C91.4899 60.405 92.3262 60.168 92.9395 59.6941C93.5528 59.1923 93.8595 58.5093 93.8595 57.6451C93.8595 56.9203 93.6086 56.3209 93.1068 55.847C92.6329 55.3731 92.0335 54.9828 91.3087 54.6761C90.6117 54.3695 89.6082 54.021 88.2979 53.6307C86.4022 53.0453 84.855 52.4599 83.6563 51.8744C82.4575 51.289 81.4261 50.4248 80.5619 49.2818C79.6977 48.1388 79.2655 46.6474 79.2655 44.8074C79.2655 42.0754 80.2552 39.9428 82.2345 38.4095C84.2138 36.8484 86.7925 36.0678 89.9706 36.0678C93.2044 36.0678 95.8109 36.8484 97.7902 38.4095C99.7696 39.9428 100.829 42.0894 100.968 44.8493H93.2322C93.1765 43.9014 92.828 43.1627 92.1868 42.633C91.5457 42.0754 90.7233 41.7967 89.7197 41.7967C88.8555 41.7967 88.1585 42.0336 87.6288 42.5075C87.0992 42.9536 86.8343 43.6087 86.8343 44.4729C86.8343 45.4207 87.2804 46.1595 88.1725 46.6892C89.0645 47.2189 90.4584 47.7903 92.3541 48.4037C94.2498 49.0448 95.7831 49.6582 96.9539 50.2436C98.1527 50.829 99.1841 51.6793 100.048 52.7944C100.913 53.9095 101.345 55.3452 101.345 57.1015C101.345 58.7741 100.913 60.2935 100.048 61.6595C99.212 63.0255 97.9854 64.1127 96.3685 64.9212C94.7516 65.7296 92.842 66.1338 90.6396 66.1338Z" fill="#24292E"/>
<path d="M119.43 59.7777V65.8411H115.792C113.199 65.8411 111.178 65.2139 109.728 63.9594C108.279 62.677 107.554 60.6001 107.554 57.7287V48.4455H104.71V42.5075H107.554V36.8205H114.704V42.5075H119.388V48.4455H114.704V57.8124C114.704 58.5093 114.872 59.0111 115.206 59.3178C115.541 59.6244 116.098 59.7777 116.879 59.7777H119.43Z" fill="#24292E"/>
<path d="M146.088 53.798C146.088 54.467 146.046 55.164 145.962 55.8888H129.779C129.891 57.3384 130.351 58.4535 131.159 59.2341C131.995 59.9868 133.013 60.3632 134.212 60.3632C135.996 60.3632 137.236 59.6105 137.933 58.1051H145.544C145.154 59.6383 144.443 61.0183 143.411 62.2449C142.408 63.4715 141.139 64.4333 139.606 65.1302C138.073 65.8272 136.358 66.1757 134.463 66.1757C132.177 66.1757 130.142 65.6878 128.357 64.7121C126.573 63.7364 125.179 62.3425 124.176 60.5304C123.172 58.7184 122.67 56.5997 122.67 54.1743C122.67 51.749 123.158 49.6303 124.134 47.8182C125.138 46.0062 126.531 44.6123 128.316 43.6366C130.1 42.6609 132.149 42.173 134.463 42.173C136.721 42.173 138.728 42.6469 140.484 43.5948C142.24 44.5426 143.606 45.8947 144.582 47.651C145.586 49.4073 146.088 51.4563 146.088 53.798ZM138.77 51.9162C138.77 50.6896 138.352 49.7139 137.515 48.9891C136.679 48.2643 135.633 47.9019 134.379 47.9019C133.18 47.9019 132.163 48.2503 131.326 48.9473C130.518 49.6442 130.016 50.6339 129.821 51.9162H138.77Z" fill="#24292E"/>
<path d="M157.69 34.8969V65.8411H150.539V34.8969H157.69Z" fill="#24292E"/>
<path d="M170.702 34.8969V65.8411H163.552V34.8969H170.702Z" fill="#24292E"/>
<path d="M175.142 54.1325C175.142 51.735 175.588 49.6303 176.48 47.8182C177.4 46.0062 178.641 44.6123 180.202 43.6366C181.763 42.6609 183.505 42.173 185.429 42.173C187.074 42.173 188.509 42.5075 189.736 43.1766C190.99 43.8457 191.952 44.7238 192.621 45.811V42.5075H199.772V65.8411H192.621V62.5376C191.924 63.6248 190.948 64.503 189.694 65.1721C188.467 65.8411 187.032 66.1757 185.387 66.1757C183.491 66.1757 181.763 65.6878 180.202 64.7121C178.641 63.7085 177.4 62.3007 176.48 60.4886C175.588 58.6487 175.142 56.53 175.142 54.1325ZM192.621 54.1743C192.621 52.3902 192.119 50.9823 191.116 49.9509C190.14 48.9194 188.941 48.4037 187.52 48.4037C186.098 48.4037 184.885 48.9194 183.882 49.9509C182.906 50.9545 182.418 52.3483 182.418 54.1325C182.418 55.9167 182.906 57.3384 183.882 58.3978C184.885 59.4293 186.098 59.945 187.52 59.945C188.941 59.945 190.14 59.4293 191.116 58.3978C192.119 57.3663 192.621 55.9585 192.621 54.1743Z" fill="#24292E"/>
<path d="M212.775 46.3965C213.611 45.1141 214.657 44.1105 215.911 43.3857C217.166 42.633 218.56 42.2566 220.093 42.2566V49.8254H218.128C216.343 49.8254 215.005 50.2157 214.113 50.9963C213.221 51.749 212.775 53.0871 212.775 55.0107V65.8411H205.624V42.5075H212.775V46.3965Z" fill="#24292E"/>
<defs>
<clipPath id="clip0_287_39">
<rect width="35.7377" height="34.7166" fill="white" transform="translate(22.5415 32.2834)"/>
</clipPath>
</defs>
</svg>
