<svg width="180" height="135" viewBox="0 0 180 135" fill="none" xmlns="http://www.w3.org/2000/svg">
<rect width="180" height="135" rx="10" fill="#E8EDFC"/>
<path d="M30.8072 46.147C32.1046 46.1564 33.383 46.3932 34.6425 46.8572C35.9019 47.3212 37.0383 48.0788 38.0515 49.1299C39.0743 50.181 39.8887 51.6015 40.4947 53.3913C41.1103 55.1716 41.4228 57.3875 41.4322 60.039C41.4322 62.5863 41.1765 64.8543 40.6652 66.843C40.1538 68.8221 39.4199 70.4935 38.4635 71.8572C37.5165 73.2208 36.3659 74.2577 35.0118 74.968C33.6576 75.6782 32.133 76.0333 30.4379 76.0333C28.705 76.0333 27.1661 75.6924 25.8214 75.0106C24.4767 74.3288 23.383 73.3865 22.5402 72.1839C21.6974 70.9718 21.1718 69.5797 20.9635 68.0077H25.2959C25.58 69.2577 26.1576 70.271 27.0288 71.0475C27.9095 71.8146 29.0459 72.1981 30.4379 72.1981C32.5686 72.1981 34.2305 71.2701 35.4237 69.414C36.6169 67.5485 37.2182 64.9443 37.2277 61.6015H37.0004C36.508 62.4159 35.8925 63.1167 35.1538 63.7038C34.4246 64.2909 33.6055 64.7454 32.6964 65.0674C31.7873 65.3894 30.8167 65.5504 29.7845 65.5504C28.1084 65.5504 26.5837 65.1384 25.2106 64.3146C23.8375 63.4907 22.7438 62.3591 21.9294 60.9197C21.115 59.4803 20.7078 57.8373 20.7078 55.9907C20.7078 54.1536 21.1245 52.4869 21.9578 50.9907C22.8006 49.4945 23.9748 48.3108 25.4805 47.4396C26.9957 46.5589 28.7712 46.128 30.8072 46.147ZM30.8214 49.8401C29.7135 49.8401 28.7144 50.1148 27.8243 50.664C26.9436 51.2038 26.2476 51.9377 25.7362 52.8657C25.2248 53.7843 24.9692 54.807 24.9692 55.9339C24.9692 57.0608 25.2154 58.0835 25.7078 59.0021C26.2097 59.9112 26.8915 60.6356 27.7532 61.1754C28.6245 61.7057 29.6188 61.9708 30.7362 61.9708C31.5695 61.9708 32.346 61.8098 33.0657 61.4879C33.7854 61.1659 34.4152 60.7208 34.955 60.1526C35.4947 59.575 35.9161 58.9216 36.2192 58.1924C36.5222 57.4632 36.6737 56.6962 36.6737 55.8913C36.6737 54.8212 36.418 53.8269 35.9067 52.9083C35.4048 51.9898 34.7135 51.2511 33.8328 50.6924C32.9521 50.1242 31.9483 49.8401 30.8214 49.8401ZM56.4259 76.0333C54.6456 76.0333 53.0452 75.6924 51.6248 75.0106C50.2138 74.3193 49.0869 73.3723 48.2441 72.1697C47.4013 70.967 46.9515 69.5939 46.8946 68.0504H51.156C51.2602 69.3004 51.8141 70.3278 52.8179 71.1327C53.8217 71.9377 55.0244 72.3401 56.4259 72.3401C57.5433 72.3401 58.5329 72.0845 59.3946 71.5731C60.2659 71.0523 60.9477 70.3373 61.4401 69.4282C61.942 68.5191 62.1929 67.4822 62.1929 66.3174C62.1929 65.1337 61.9373 64.0778 61.4259 63.1498C60.9145 62.2218 60.209 61.4926 59.3094 60.9623C58.4193 60.432 57.3965 60.1621 56.2412 60.1526C55.3605 60.1526 54.4751 60.3041 53.585 60.6072C52.6948 60.9102 51.9751 61.3079 51.4259 61.8004L47.406 61.2038L49.0395 46.5447H65.0338V50.3089H52.6901L51.7668 58.4481H51.9373C52.5054 57.8988 53.2583 57.4396 54.1958 57.0702C55.1427 56.7009 56.156 56.5163 57.2355 56.5163C59.0064 56.5163 60.5831 56.9377 61.9657 57.7805C63.3577 58.6233 64.4515 59.7738 65.2469 61.2322C66.0518 62.681 66.4496 64.3477 66.4401 66.2322C66.4496 68.1166 66.0234 69.7975 65.1617 71.2748C64.3094 72.7521 63.1257 73.9168 61.6105 74.7691C60.1049 75.6119 58.3766 76.0333 56.4259 76.0333ZM87.073 70.181V68.647C87.073 67.5485 87.3002 66.5447 87.7548 65.6356C88.2188 64.717 88.8911 63.9831 89.7718 63.4339C90.662 62.8752 91.7368 62.5958 92.9963 62.5958C94.2841 62.5958 95.3637 62.8704 96.2349 63.4197C97.1061 63.9689 97.7643 64.7028 98.2093 65.6214C98.6639 66.5399 98.8911 67.5485 98.8911 68.647V70.181C98.8911 71.2795 98.6639 72.2881 98.2093 73.2066C97.7548 74.1157 97.0872 74.8496 96.2065 75.4083C95.3353 75.9576 94.2652 76.2322 92.9963 76.2322C91.7178 76.2322 90.6383 75.9576 89.7576 75.4083C88.8769 74.8496 88.2093 74.1157 87.7548 73.2066C87.3002 72.2881 87.073 71.2795 87.073 70.181ZM90.3826 68.647V70.181C90.3826 70.9954 90.5768 71.7341 90.965 72.397C91.3533 73.0598 92.0303 73.3913 92.9963 73.3913C93.9527 73.3913 94.6203 73.0598 94.9991 72.397C95.3779 71.7341 95.5673 70.9954 95.5673 70.181V68.647C95.5673 67.8326 95.3826 67.0939 95.0133 66.431C94.6535 65.7682 93.9811 65.4367 92.9963 65.4367C92.0493 65.4367 91.3769 65.7682 90.9792 66.431C90.5815 67.0939 90.3826 67.8326 90.3826 68.647ZM72.4423 53.5333V51.9992C72.4423 50.9007 72.6696 49.8922 73.1241 48.9737C73.5881 48.0551 74.2605 47.3212 75.1411 46.772C76.0313 46.2227 77.1061 45.9481 78.3656 45.9481C79.6535 45.9481 80.733 46.2227 81.6042 46.772C82.4754 47.3212 83.1336 48.0551 83.5786 48.9737C84.0237 49.8922 84.2463 50.9007 84.2463 51.9992V53.5333C84.2463 54.6318 84.019 55.6403 83.5644 56.5589C83.1194 57.468 82.4565 58.2019 81.5758 58.7606C80.7046 59.3098 79.6345 59.5845 78.3656 59.5845C77.0777 59.5845 75.9934 59.3098 75.1127 58.7606C74.2415 58.2019 73.5786 57.468 73.1241 56.5589C72.6696 55.6403 72.4423 54.6318 72.4423 53.5333ZM75.7661 51.9992V53.5333C75.7661 54.3477 75.9555 55.0863 76.3343 55.7492C76.7226 56.4121 77.3997 56.7435 78.3656 56.7435C79.3125 56.7435 79.9754 56.4121 80.3542 55.7492C80.7425 55.0863 80.9366 54.3477 80.9366 53.5333V51.9992C80.9366 51.1848 80.7519 50.4462 80.3826 49.7833C80.0133 49.1204 79.341 48.789 78.3656 48.789C77.4186 48.789 76.7463 49.1204 76.3485 49.7833C75.9603 50.4462 75.7661 51.1848 75.7661 51.9992ZM73.7917 75.6356L93.7917 46.5447H97.1866L77.1866 75.6356H73.7917Z" fill="#84A4DC"/>
<path d="M21.9152 98.8482C21.3243 98.8482 20.8058 98.7076 20.3598 98.4263C19.9166 98.1451 19.57 97.7516 19.32 97.2459C19.0728 96.7403 18.9493 96.1494 18.9493 95.4732C18.9493 94.7914 19.0728 94.1962 19.32 93.6877C19.57 93.1792 19.9166 92.7843 20.3598 92.503C20.8058 92.2218 21.3243 92.0812 21.9152 92.0812C22.5061 92.0812 23.0231 92.2218 23.4663 92.503C23.9123 92.7843 24.2589 93.1792 24.5061 93.6877C24.7561 94.1962 24.8811 94.7914 24.8811 95.4732C24.8811 96.1494 24.7561 96.7403 24.5061 97.2459C24.2589 97.7516 23.9123 98.1451 23.4663 98.4263C23.0231 98.7076 22.5061 98.8482 21.9152 98.8482ZM21.9152 97.9448C22.364 97.9448 22.7334 97.8298 23.0231 97.5996C23.3129 97.3695 23.5274 97.067 23.6666 96.692C23.8058 96.317 23.8754 95.9107 23.8754 95.4732C23.8754 95.0357 23.8058 94.628 23.6666 94.2502C23.5274 93.8724 23.3129 93.567 23.0231 93.334C22.7334 93.1011 22.364 92.9846 21.9152 92.9846C21.4663 92.9846 21.097 93.1011 20.8072 93.334C20.5175 93.567 20.303 93.8724 20.1638 94.2502C20.0246 94.628 19.955 95.0357 19.955 95.4732C19.955 95.9107 20.0246 96.317 20.1638 96.692C20.303 97.067 20.5175 97.3695 20.8072 97.5996C21.097 97.8298 21.4663 97.9448 21.9152 97.9448ZM27.6819 94.7744V98.7119H26.6762V92.1664H27.6478V93.1891H27.7331C27.8865 92.8567 28.1194 92.5897 28.4319 92.388C28.7444 92.1834 29.1478 92.0812 29.6422 92.0812C30.0853 92.0812 30.4731 92.1721 30.8055 92.3539C31.1379 92.5329 31.3964 92.8056 31.5811 93.1721C31.7657 93.5357 31.8581 93.9959 31.8581 94.5528V98.7119H30.8524V94.6209C30.8524 94.1067 30.7189 93.7062 30.4518 93.4192C30.1848 93.1295 29.8183 92.9846 29.3524 92.9846C29.0314 92.9846 28.7444 93.0542 28.4916 93.1934C28.2416 93.3326 28.0441 93.5357 27.8993 93.8028C27.7544 94.0698 27.6819 94.3937 27.6819 94.7744ZM37.7058 94.5016V95.4391H33.8876V94.5016H37.7058ZM42.5819 92.1664V93.0187H39.1899V92.1664H42.5819ZM40.1785 90.5982H41.1842V96.8369C41.1842 97.1209 41.2254 97.334 41.3077 97.4761C41.393 97.6153 41.5009 97.709 41.6316 97.7573C41.7651 97.8028 41.9058 97.8255 42.0535 97.8255C42.1643 97.8255 42.2552 97.8198 42.3262 97.8084C42.3972 97.7942 42.4541 97.7829 42.4967 97.7744L42.7012 98.6778C42.633 98.7033 42.5379 98.7289 42.4157 98.7545C42.2935 98.7829 42.1387 98.7971 41.9512 98.7971C41.6671 98.7971 41.3887 98.736 41.116 98.6138C40.8461 98.4917 40.6217 98.3056 40.4427 98.0556C40.2666 97.8056 40.1785 97.4903 40.1785 97.1096V90.5982ZM44.3547 98.7119V92.1664H45.3604V98.7119H44.3547ZM44.866 91.0755C44.67 91.0755 44.501 91.0087 44.3589 90.8752C44.2197 90.7417 44.1501 90.5812 44.1501 90.3937C44.1501 90.2062 44.2197 90.0457 44.3589 89.9121C44.501 89.7786 44.67 89.7119 44.866 89.7119C45.0621 89.7119 45.2297 89.7786 45.3689 89.9121C45.5109 90.0457 45.582 90.2062 45.582 90.3937C45.582 90.5812 45.5109 90.7417 45.3689 90.8752C45.2297 91.0087 45.0621 91.0755 44.866 91.0755ZM47.4623 98.7119V92.1664H48.4339V93.1891H48.5192C48.6555 92.8397 48.8757 92.5684 49.1797 92.3752C49.4836 92.1792 49.8487 92.0812 50.2748 92.0812C50.7067 92.0812 51.066 92.1792 51.353 92.3752C51.6427 92.5684 51.8686 92.8397 52.0305 93.1891H52.0987C52.2663 92.8511 52.5177 92.5826 52.853 92.3837C53.1882 92.182 53.5902 92.0812 54.0589 92.0812C54.6442 92.0812 55.1228 92.2644 55.495 92.6309C55.8672 92.9945 56.0532 93.5613 56.0532 94.3312V98.7119H55.0476V94.3312C55.0476 93.8482 54.9155 93.503 54.6513 93.2957C54.3871 93.0883 54.076 92.9846 53.718 92.9846C53.2578 92.9846 52.9013 93.1238 52.6484 93.4022C52.3956 93.6778 52.2692 94.0272 52.2692 94.4505V98.7119H51.2464V94.2289C51.2464 93.8567 51.1257 93.557 50.8842 93.3298C50.6427 93.0996 50.3317 92.9846 49.951 92.9846C49.6896 92.9846 49.4453 93.0542 49.218 93.1934C48.9936 93.3326 48.8118 93.5258 48.6726 93.7729C48.5362 94.0173 48.468 94.2999 48.468 94.6209V98.7119H47.4623ZM60.8963 98.8482C60.2657 98.8482 59.7216 98.709 59.2642 98.4306C58.8097 98.1494 58.4588 97.7573 58.2117 97.2545C57.9674 96.7488 57.8452 96.1607 57.8452 95.4903C57.8452 94.8198 57.9674 94.2289 58.2117 93.7175C58.4588 93.2033 58.8026 92.8028 59.2429 92.5158C59.6861 92.2261 60.2032 92.0812 60.7941 92.0812C61.135 92.0812 61.4716 92.138 61.804 92.2516C62.1364 92.3653 62.439 92.5499 62.7117 92.8056C62.9844 93.0584 63.2017 93.3937 63.3637 93.8113C63.5256 94.2289 63.6066 94.7431 63.6066 95.3539V95.78H58.5611V94.9107H62.5838C62.5838 94.5414 62.51 94.2119 62.3623 93.9221C62.2174 93.6323 62.01 93.4036 61.7401 93.236C61.473 93.0684 61.1577 92.9846 60.7941 92.9846C60.3935 92.9846 60.0469 93.084 59.7543 93.2829C59.4645 93.4789 59.2415 93.7346 59.0853 94.0499C58.929 94.3653 58.8509 94.7033 58.8509 95.0641V95.6437C58.8509 96.138 58.9361 96.557 59.1066 96.9008C59.2799 97.2417 59.5199 97.5016 59.8267 97.6806C60.1336 97.8567 60.4901 97.9448 60.8963 97.9448C61.1605 97.9448 61.3992 97.9079 61.6123 97.834C61.8282 97.7573 62.0142 97.6437 62.1705 97.4931C62.3267 97.3397 62.4475 97.1494 62.5327 96.9221L63.5043 97.1948C63.402 97.5244 63.2302 97.8141 62.9887 98.0641C62.7472 98.3113 62.4489 98.5045 62.0938 98.6437C61.7387 98.78 61.3395 98.8482 60.8963 98.8482ZM71.503 98.8482C70.9575 98.8482 70.476 98.7104 70.0584 98.4349C69.6408 98.1565 69.3141 97.7644 69.0783 97.2587C68.8425 96.7502 68.7246 96.1494 68.7246 95.4562C68.7246 94.7687 68.8425 94.1721 69.0783 93.6664C69.3141 93.1607 69.6422 92.7701 70.0627 92.4945C70.4831 92.219 70.9689 92.0812 71.52 92.0812C71.9462 92.0812 72.2828 92.1522 72.53 92.2942C72.78 92.4334 72.9703 92.5925 73.101 92.7715C73.2345 92.9476 73.3382 93.0925 73.4121 93.2062H73.4973V89.9846H74.503V98.7119H73.5314V97.7062H73.4121C73.3382 97.8255 73.2331 97.9761 73.0967 98.1579C72.9604 98.3369 72.7658 98.4974 72.5129 98.6394C72.2601 98.7786 71.9234 98.8482 71.503 98.8482ZM71.6394 97.9448C72.0428 97.9448 72.3837 97.8397 72.6621 97.6295C72.9405 97.4164 73.1521 97.1224 73.297 96.7474C73.4419 96.3695 73.5144 95.9334 73.5144 95.4391C73.5144 94.9505 73.4433 94.5229 73.3013 94.1565C73.1592 93.7871 72.949 93.5002 72.6706 93.2957C72.3922 93.0883 72.0484 92.9846 71.6394 92.9846C71.2132 92.9846 70.8581 93.094 70.574 93.3127C70.2928 93.5286 70.0811 93.8226 69.9391 94.1948C69.7999 94.5641 69.7303 94.9789 69.7303 95.4391C69.7303 95.905 69.8013 96.3283 69.9433 96.709C70.0882 97.0869 70.3013 97.388 70.5825 97.6124C70.8666 97.834 71.2189 97.9448 71.6394 97.9448ZM79.4888 98.8482C78.8582 98.8482 78.3141 98.709 77.8567 98.4306C77.4022 98.1494 77.0513 97.7573 76.8042 97.2545C76.5599 96.7488 76.4377 96.1607 76.4377 95.4903C76.4377 94.8198 76.5599 94.2289 76.8042 93.7175C77.0513 93.2033 77.3951 92.8028 77.8354 92.5158C78.2786 92.2261 78.7957 92.0812 79.3866 92.0812C79.7275 92.0812 80.0641 92.138 80.3965 92.2516C80.7289 92.3653 81.0315 92.5499 81.3042 92.8056C81.5769 93.0584 81.7942 93.3937 81.9562 93.8113C82.1181 94.2289 82.1991 94.7431 82.1991 95.3539V95.78H77.1536V94.9107H81.1763C81.1763 94.5414 81.1025 94.2119 80.9548 93.9221C80.8099 93.6323 80.6025 93.4036 80.3326 93.236C80.0655 93.0684 79.7502 92.9846 79.3866 92.9846C78.986 92.9846 78.6394 93.084 78.3468 93.2829C78.057 93.4789 77.834 93.7346 77.6778 94.0499C77.5215 94.3653 77.4434 94.7033 77.4434 95.0641V95.6437C77.4434 96.138 77.5286 96.557 77.6991 96.9008C77.8724 97.2417 78.1124 97.5016 78.4192 97.6806C78.7261 97.8567 79.0826 97.9448 79.4888 97.9448C79.753 97.9448 79.9917 97.9079 80.2048 97.834C80.4207 97.7573 80.6067 97.6437 80.763 97.4931C80.9192 97.3397 81.04 97.1494 81.1252 96.9221L82.0968 97.1948C81.9945 97.5244 81.8226 97.8141 81.5812 98.0641C81.3397 98.3113 81.0414 98.5045 80.6863 98.6437C80.3312 98.78 79.932 98.8482 79.4888 98.8482ZM84.9946 89.9846V98.7119H83.9889V89.9846H84.9946ZM87.0966 98.7119V92.1664H88.1022V98.7119H87.0966ZM87.6079 91.0755C87.4119 91.0755 87.2429 91.0087 87.1008 90.8752C86.9616 90.7417 86.892 90.5812 86.892 90.3937C86.892 90.2062 86.9616 90.0457 87.1008 89.9121C87.2429 89.7786 87.4119 89.7119 87.6079 89.7119C87.8039 89.7119 87.9716 89.7786 88.1108 89.9121C88.2528 90.0457 88.3238 90.2062 88.3238 90.3937C88.3238 90.5812 88.2528 90.7417 88.1108 90.8752C87.9716 91.0087 87.8039 91.0755 87.6079 91.0755ZM95.5565 92.1664L93.136 98.7119H92.1133L89.6929 92.1664H90.7838L92.5906 97.3823H92.6588L94.4656 92.1664H95.5565ZM99.6538 98.8482C99.0232 98.8482 98.4791 98.709 98.0217 98.4306C97.5672 98.1494 97.2163 97.7573 96.9692 97.2545C96.7249 96.7488 96.6027 96.1607 96.6027 95.4903C96.6027 94.8198 96.7249 94.2289 96.9692 93.7175C97.2163 93.2033 97.5601 92.8028 98.0004 92.5158C98.4436 92.2261 98.9607 92.0812 99.5516 92.0812C99.8925 92.0812 100.229 92.138 100.562 92.2516C100.894 92.3653 101.196 92.5499 101.469 92.8056C101.742 93.0584 101.959 93.3937 102.121 93.8113C102.283 94.2289 102.364 94.7431 102.364 95.3539V95.78H97.3186V94.9107H101.341C101.341 94.5414 101.267 94.2119 101.12 93.9221C100.975 93.6323 100.767 93.4036 100.498 93.236C100.231 93.0684 99.9152 92.9846 99.5516 92.9846C99.151 92.9846 98.8044 93.084 98.5118 93.2829C98.222 93.4789 97.999 93.7346 97.8428 94.0499C97.6865 94.3653 97.6084 94.7033 97.6084 95.0641V95.6437C97.6084 96.138 97.6936 96.557 97.8641 96.9008C98.0374 97.2417 98.2774 97.5016 98.5842 97.6806C98.8911 97.8567 99.2476 97.9448 99.6538 97.9448C99.918 97.9448 100.157 97.9079 100.37 97.834C100.586 97.7573 100.772 97.6437 100.928 97.4931C101.084 97.3397 101.205 97.1494 101.29 96.9221L102.262 97.1948C102.16 97.5244 101.988 97.8141 101.746 98.0641C101.505 98.3113 101.206 98.5045 100.851 98.6437C100.496 98.78 100.097 98.8482 99.6538 98.8482ZM104.154 98.7119V92.1664H105.125V93.155H105.194C105.313 92.8312 105.529 92.5684 105.841 92.3667C106.154 92.165 106.506 92.0641 106.898 92.0641C106.972 92.0641 107.064 92.0655 107.175 92.0684C107.286 92.0712 107.37 92.0755 107.427 92.0812V93.1039C107.393 93.0954 107.314 93.0826 107.192 93.0655C107.073 93.0457 106.947 93.0357 106.813 93.0357C106.495 93.0357 106.211 93.1025 105.961 93.236C105.714 93.3667 105.518 93.5485 105.373 93.7815C105.231 94.0116 105.16 94.2744 105.16 94.5698V98.7119H104.154ZM109.726 101.166C109.555 101.166 109.403 101.152 109.27 101.124C109.136 101.098 109.044 101.073 108.993 101.047L109.248 100.161C109.493 100.223 109.709 100.246 109.896 100.229C110.084 100.212 110.25 100.128 110.395 99.9775C110.542 99.8298 110.677 99.5897 110.8 99.2573L110.987 98.7459L108.567 92.1664H109.658L111.464 97.3823H111.533L113.339 92.1664H114.43L111.652 99.6664C111.527 100.004 111.372 100.284 111.187 100.506C111.003 100.73 110.788 100.897 110.544 101.004C110.302 101.112 110.03 101.166 109.726 101.166ZM119.653 98.7119V92.1664H120.624V93.155H120.692C120.812 92.8312 121.028 92.5684 121.34 92.3667C121.653 92.165 122.005 92.0641 122.397 92.0641C122.471 92.0641 122.563 92.0655 122.674 92.0684C122.785 92.0712 122.869 92.0755 122.925 92.0812V93.1039C122.891 93.0954 122.813 93.0826 122.691 93.0655C122.572 93.0457 122.445 93.0357 122.312 93.0357C121.994 93.0357 121.709 93.1025 121.459 93.236C121.212 93.3667 121.016 93.5485 120.871 93.7815C120.729 94.0116 120.658 94.2744 120.658 94.5698V98.7119H119.653ZM126.304 98.8653C125.889 98.8653 125.512 98.7871 125.174 98.6309C124.836 98.4718 124.568 98.2431 124.369 97.9448C124.17 97.6437 124.071 97.28 124.071 96.8539C124.071 96.4789 124.145 96.1749 124.292 95.942C124.44 95.7062 124.637 95.5215 124.885 95.388C125.132 95.2545 125.404 95.155 125.703 95.0897C126.004 95.0215 126.306 94.9675 126.61 94.9278C127.008 94.8766 127.331 94.8383 127.578 94.8127C127.828 94.7843 128.01 94.7374 128.123 94.6721C128.24 94.6067 128.298 94.4931 128.298 94.3312V94.2971C128.298 93.8766 128.183 93.5499 127.953 93.317C127.726 93.084 127.38 92.9675 126.917 92.9675C126.437 92.9675 126.061 93.0726 125.788 93.2829C125.515 93.4931 125.324 93.7175 125.213 93.9562L124.258 93.6153C124.429 93.2175 124.656 92.9079 124.94 92.6863C125.227 92.4619 125.539 92.3056 125.877 92.2175C126.218 92.1266 126.554 92.0812 126.883 92.0812C127.093 92.0812 127.335 92.1067 127.608 92.1579C127.883 92.2062 128.149 92.307 128.404 92.4604C128.663 92.6138 128.877 92.8454 129.048 93.155C129.218 93.4647 129.304 93.8795 129.304 94.3994V98.7119H128.298V97.8255H128.247C128.179 97.9675 128.065 98.1195 127.906 98.2815C127.747 98.4434 127.535 98.5812 127.271 98.6948C127.007 98.8084 126.684 98.8653 126.304 98.8653ZM126.457 97.9619C126.855 97.9619 127.19 97.8837 127.463 97.7275C127.738 97.5712 127.946 97.3695 128.085 97.1224C128.227 96.8752 128.298 96.6153 128.298 96.3425V95.4221C128.255 95.4732 128.162 95.5201 128.017 95.5627C127.875 95.6025 127.71 95.638 127.522 95.6692C127.338 95.6976 127.157 95.7232 126.981 95.7459C126.808 95.7658 126.667 95.7829 126.559 95.7971C126.298 95.8312 126.054 95.8866 125.826 95.9633C125.602 96.0371 125.42 96.1494 125.281 96.2999C125.145 96.4476 125.076 96.6494 125.076 96.905C125.076 97.2545 125.206 97.5187 125.464 97.6976C125.726 97.8738 126.056 97.9619 126.457 97.9619ZM134.246 92.1664V93.0187H130.854V92.1664H134.246ZM131.842 90.5982H132.848V96.8369C132.848 97.1209 132.889 97.334 132.972 97.4761C133.057 97.6153 133.165 97.709 133.296 97.7573C133.429 97.8028 133.57 97.8255 133.717 97.8255C133.828 97.8255 133.919 97.8198 133.99 97.8084C134.061 97.7942 134.118 97.7829 134.161 97.7744L134.365 98.6778C134.297 98.7033 134.202 98.7289 134.08 98.7545C133.957 98.7829 133.803 98.7971 133.615 98.7971C133.331 98.7971 133.053 98.736 132.78 98.6138C132.51 98.4917 132.286 98.3056 132.107 98.0556C131.93 97.8056 131.842 97.4903 131.842 97.1096V90.5982ZM138.693 98.8482C138.062 98.8482 137.518 98.709 137.06 98.4306C136.606 98.1494 136.255 97.7573 136.008 97.2545C135.764 96.7488 135.641 96.1607 135.641 95.4903C135.641 94.8198 135.764 94.2289 136.008 93.7175C136.255 93.2033 136.599 92.8028 137.039 92.5158C137.482 92.2261 137.999 92.0812 138.59 92.0812C138.931 92.0812 139.268 92.138 139.6 92.2516C139.933 92.3653 140.235 92.5499 140.508 92.8056C140.781 93.0584 140.998 93.3937 141.16 93.8113C141.322 94.2289 141.403 94.7431 141.403 95.3539V95.78H136.357V94.9107H140.38C140.38 94.5414 140.306 94.2119 140.158 93.9221C140.014 93.6323 139.806 93.4036 139.536 93.236C139.269 93.0684 138.954 92.9846 138.59 92.9846C138.19 92.9846 137.843 93.084 137.551 93.2829C137.261 93.4789 137.038 93.7346 136.882 94.0499C136.725 94.3653 136.647 94.7033 136.647 95.0641V95.6437C136.647 96.138 136.732 96.557 136.903 96.9008C137.076 97.2417 137.316 97.5016 137.623 97.6806C137.93 97.8567 138.286 97.9448 138.693 97.9448C138.957 97.9448 139.195 97.9079 139.408 97.834C139.624 97.7573 139.81 97.6437 139.967 97.4931C140.123 97.3397 140.244 97.1494 140.329 96.9221L141.301 97.1948C141.198 97.5244 141.026 97.8141 140.785 98.0641C140.543 98.3113 140.245 98.5045 139.89 98.6437C139.535 98.78 139.136 98.8482 138.693 98.8482Z" fill="black" fill-opacity="0.9"/>
</svg>
