<svg width="180" height="135" viewBox="0 0 180 135" fill="none" xmlns="http://www.w3.org/2000/svg">
<rect width="180" height="135" rx="10" fill="#E2D9D7" fill-opacity="0.5"/>
<path d="M31.3353 76.0333C29.3846 76.0333 27.6421 75.6971 26.108 75.0248C24.5834 74.3524 23.376 73.4197 22.4859 72.2265C21.6052 71.0238 21.1317 69.6318 21.0654 68.0504H25.5257C25.5825 68.9121 25.8713 69.6602 26.3921 70.2947C26.9224 70.9197 27.6137 71.4026 28.466 71.7435C29.3183 72.0845 30.2652 72.2549 31.3069 72.2549C32.4527 72.2549 33.466 72.056 34.3467 71.6583C35.2368 71.2606 35.9329 70.7066 36.4347 69.9964C36.9366 69.2767 37.1876 68.4481 37.1876 67.5106C37.1876 66.5352 36.9366 65.6782 36.4347 64.9396C35.9423 64.1915 35.2179 63.6043 34.2615 63.1782C33.3145 62.7521 32.1686 62.539 30.824 62.539H28.3666V58.9595H30.824C31.9035 58.9595 32.8505 58.7653 33.6649 58.3771C34.4887 57.9888 35.1327 57.449 35.5967 56.7577C36.0607 56.057 36.2927 55.2379 36.2927 54.3004C36.2927 53.4007 36.0891 52.6195 35.6819 51.9566C35.2842 51.2843 34.716 50.7587 33.9774 50.3799C33.2482 50.0011 32.3865 49.8117 31.3921 49.8117C30.4452 49.8117 29.5597 49.9869 28.7359 50.3373C27.9215 50.6782 27.2586 51.1706 26.7472 51.8146C26.2359 52.449 25.9613 53.2113 25.9234 54.1015H21.6762C21.7236 52.5295 22.1876 51.147 23.0683 49.9538C23.9584 48.7606 25.1327 47.8278 26.591 47.1555C28.0493 46.4831 29.6687 46.147 31.449 46.147C33.3145 46.147 34.9243 46.5115 36.2785 47.2407C37.6421 47.9604 38.6933 48.9216 39.4319 50.1242C40.18 51.3269 40.5493 52.6432 40.5399 54.0731C40.5493 55.7019 40.0948 57.0845 39.1762 58.2208C38.2671 59.3572 37.055 60.1195 35.5399 60.5077V60.735C37.4717 61.0286 38.9679 61.7956 40.0285 63.0362C41.0986 64.2767 41.6289 65.8155 41.6194 67.6526C41.6289 69.253 41.1838 70.6877 40.2842 71.9566C39.394 73.2256 38.1772 74.2246 36.6336 74.9538C35.0901 75.6735 33.324 76.0333 31.3353 76.0333ZM57.3766 76.1185C55.1322 76.1091 53.2146 75.5172 51.6237 74.343C50.0328 73.1687 48.816 71.4595 47.9732 69.2151C47.1304 66.9708 46.709 64.2672 46.709 61.1043C46.709 57.9509 47.1304 55.2568 47.9732 53.022C48.8254 50.7871 50.047 49.0826 51.6379 47.9083C53.2383 46.7341 55.1512 46.147 57.3766 46.147C59.6019 46.147 61.5101 46.7388 63.101 47.9225C64.6919 49.0968 65.9088 50.8013 66.7516 53.0362C67.6038 55.2615 68.03 57.9509 68.03 61.1043C68.03 64.2767 67.6086 66.985 66.7658 69.2293C65.923 71.4642 64.7061 73.1735 63.1152 74.3572C61.5243 75.5314 59.6114 76.1185 57.3766 76.1185ZM57.3766 72.3259C59.3463 72.3259 60.8851 71.3648 61.993 69.4424C63.1105 67.5201 63.6692 64.7407 63.6692 61.1043C63.6692 58.6896 63.4135 56.6488 62.9021 54.9822C62.4002 53.306 61.6758 52.0371 60.7288 51.1754C59.7913 50.3041 58.6739 49.8685 57.3766 49.8685C55.4163 49.8685 53.8775 50.8345 52.7601 52.7663C51.6427 54.6981 51.0792 57.4774 51.0697 61.1043C51.0697 63.5286 51.3207 65.5788 51.8226 67.2549C52.334 68.9216 53.0584 70.1858 53.9959 71.0475C54.9334 71.8998 56.0603 72.3259 57.3766 72.3259Z" fill="#817B7A"/>
<path d="M22.1592 98.7119H19.466V89.9846H22.2785C23.1251 89.9846 23.8495 90.1593 24.4518 90.5087C25.0541 90.8553 25.5157 91.3539 25.8367 92.0045C26.1578 92.6522 26.3183 93.4278 26.3183 94.3312C26.3183 95.2403 26.1563 96.0229 25.8325 96.6792C25.5086 97.3326 25.037 97.8354 24.4177 98.1877C23.7984 98.5371 23.0455 98.7119 22.1592 98.7119ZM20.5228 97.7744H22.091C22.8126 97.7744 23.4106 97.6351 23.885 97.3567C24.3595 97.0783 24.7132 96.682 24.9461 96.1678C25.1791 95.6536 25.2955 95.0414 25.2955 94.3312C25.2955 93.6266 25.1805 93.0201 24.9504 92.5116C24.7203 92.0002 24.3765 91.6082 23.9191 91.3354C23.4617 91.0599 22.8921 90.9221 22.2103 90.9221H20.5228V97.7744ZM30.959 98.8482C30.3283 98.8482 29.7842 98.709 29.3269 98.4306C28.8723 98.1494 28.5215 97.7573 28.2743 97.2545C28.03 96.7488 27.9078 96.1607 27.9078 95.4903C27.9078 94.8198 28.03 94.2289 28.2743 93.7175C28.5215 93.2033 28.8652 92.8028 29.3055 92.5158C29.7487 92.2261 30.2658 92.0812 30.8567 92.0812C31.1976 92.0812 31.5342 92.138 31.8666 92.2516C32.199 92.3653 32.5016 92.5499 32.7743 92.8056C33.047 93.0584 33.2644 93.3937 33.4263 93.8113C33.5882 94.2289 33.6692 94.7431 33.6692 95.3539V95.78H28.6237V94.9107H32.6465C32.6465 94.5414 32.5726 94.2119 32.4249 93.9221C32.28 93.6323 32.0726 93.4036 31.8027 93.236C31.5357 93.0684 31.2203 92.9846 30.8567 92.9846C30.4561 92.9846 30.1095 93.084 29.8169 93.2829C29.5271 93.4789 29.3041 93.7346 29.1479 94.0499C28.9916 94.3653 28.9135 94.7033 28.9135 95.0641V95.6437C28.9135 96.138 28.9987 96.557 29.1692 96.9008C29.3425 97.2417 29.5825 97.5016 29.8894 97.6806C30.1962 97.8567 30.5527 97.9448 30.959 97.9448C31.2232 97.9448 31.4618 97.9079 31.6749 97.834C31.8908 97.7573 32.0769 97.6437 32.2331 97.4931C32.3894 97.3397 32.5101 97.1494 32.5953 96.9221L33.5669 97.1948C33.4646 97.5244 33.2928 97.8141 33.0513 98.0641C32.8098 98.3113 32.5115 98.5045 32.1564 98.6437C31.8013 98.78 31.4021 98.8482 30.959 98.8482ZM36.4647 89.9846V98.7119H35.459V89.9846H36.4647ZM38.5667 98.7119V92.1664H39.5723V98.7119H38.5667ZM39.078 91.0755C38.882 91.0755 38.713 91.0087 38.5709 90.8752C38.4317 90.7417 38.3621 90.5812 38.3621 90.3937C38.3621 90.2062 38.4317 90.0457 38.5709 89.9121C38.713 89.7786 38.882 89.7119 39.078 89.7119C39.2741 89.7119 39.4417 89.7786 39.5809 89.9121C39.7229 90.0457 39.7939 90.2062 39.7939 90.3937C39.7939 90.5812 39.7229 90.7417 39.5809 90.8752C39.4417 91.0087 39.2741 91.0755 39.078 91.0755ZM47.0266 92.1664L44.6061 98.7119H43.5834L41.163 92.1664H42.2539L44.0607 97.3823H44.1289L45.9357 92.1664H47.0266ZM51.124 98.8482C50.4933 98.8482 49.9492 98.709 49.4918 98.4306C49.0373 98.1494 48.6865 97.7573 48.4393 97.2545C48.195 96.7488 48.0728 96.1607 48.0728 95.4903C48.0728 94.8198 48.195 94.2289 48.4393 93.7175C48.6865 93.2033 49.0302 92.8028 49.4705 92.5158C49.9137 92.2261 50.4308 92.0812 51.0217 92.0812C51.3626 92.0812 51.6992 92.138 52.0316 92.2516C52.364 92.3653 52.6666 92.5499 52.9393 92.8056C53.212 93.0584 53.4293 93.3937 53.5913 93.8113C53.7532 94.2289 53.8342 94.7431 53.8342 95.3539V95.78H48.7887V94.9107H52.8115C52.8115 94.5414 52.7376 94.2119 52.5899 93.9221C52.445 93.6323 52.2376 93.4036 51.9677 93.236C51.7007 93.0684 51.3853 92.9846 51.0217 92.9846C50.6211 92.9846 50.2745 93.084 49.9819 93.2829C49.6921 93.4789 49.4691 93.7346 49.3129 94.0499C49.1566 94.3653 49.0785 94.7033 49.0785 95.0641V95.6437C49.0785 96.138 49.1637 96.557 49.3342 96.9008C49.5075 97.2417 49.7475 97.5016 50.0543 97.6806C50.3612 97.8567 50.7177 97.9448 51.124 97.9448C51.3882 97.9448 51.6268 97.9079 51.8399 97.834C52.0558 97.7573 52.2418 97.6437 52.3981 97.4931C52.5543 97.3397 52.6751 97.1494 52.7603 96.9221L53.7319 97.1948C53.6296 97.5244 53.4578 97.8141 53.2163 98.0641C52.9748 98.3113 52.6765 98.5045 52.3214 98.6437C51.9663 98.78 51.5671 98.8482 51.124 98.8482ZM55.624 98.7119V92.1664H56.5956V93.155H56.6638C56.7831 92.8312 56.999 92.5684 57.3115 92.3667C57.624 92.165 57.9763 92.0641 58.3683 92.0641C58.4422 92.0641 58.5345 92.0655 58.6453 92.0684C58.7561 92.0712 58.8399 92.0755 58.8967 92.0812V93.1039C58.8626 93.0954 58.7845 93.0826 58.6624 93.0655C58.543 93.0457 58.4166 93.0357 58.2831 93.0357C57.9649 93.0357 57.6808 93.1025 57.4308 93.236C57.1837 93.3667 56.9876 93.5485 56.8428 93.7815C56.7007 94.0116 56.6297 94.2744 56.6297 94.5698V98.7119H55.624ZM62.894 98.8482C62.2633 98.8482 61.7192 98.709 61.2618 98.4306C60.8073 98.1494 60.4565 97.7573 60.2093 97.2545C59.965 96.7488 59.8428 96.1607 59.8428 95.4903C59.8428 94.8198 59.965 94.2289 60.2093 93.7175C60.4565 93.2033 60.8002 92.8028 61.2405 92.5158C61.6837 92.2261 62.2008 92.0812 62.7917 92.0812C63.1326 92.0812 63.4692 92.138 63.8016 92.2516C64.134 92.3653 64.4366 92.5499 64.7093 92.8056C64.982 93.0584 65.1994 93.3937 65.3613 93.8113C65.5232 94.2289 65.6042 94.7431 65.6042 95.3539V95.78H60.5587V94.9107H64.5815C64.5815 94.5414 64.5076 94.2119 64.3599 93.9221C64.215 93.6323 64.0076 93.4036 63.7377 93.236C63.4707 93.0684 63.1553 92.9846 62.7917 92.9846C62.3911 92.9846 62.0445 93.084 61.7519 93.2829C61.4621 93.4789 61.2391 93.7346 61.0829 94.0499C60.9266 94.3653 60.8485 94.7033 60.8485 95.0641V95.6437C60.8485 96.138 60.9337 96.557 61.1042 96.9008C61.2775 97.2417 61.5175 97.5016 61.8243 97.6806C62.1312 97.8567 62.4877 97.9448 62.894 97.9448C63.1582 97.9448 63.3968 97.9079 63.6099 97.834C63.8258 97.7573 64.0118 97.6437 64.1681 97.4931C64.3243 97.3397 64.4451 97.1494 64.5303 96.9221L65.5019 97.1948C65.3996 97.5244 65.2278 97.8141 64.9863 98.0641C64.7448 98.3113 64.4465 98.5045 64.0914 98.6437C63.7363 98.78 63.3371 98.8482 62.894 98.8482ZM69.8656 98.8482C69.3201 98.8482 68.8386 98.7104 68.421 98.4349C68.0034 98.1565 67.6767 97.7644 67.4409 97.2587C67.2051 96.7502 67.0872 96.1494 67.0872 95.4562C67.0872 94.7687 67.2051 94.1721 67.4409 93.6664C67.6767 93.1607 68.0048 92.7701 68.4253 92.4945C68.8457 92.219 69.3315 92.0812 69.8826 92.0812C70.3088 92.0812 70.6454 92.1522 70.8926 92.2942C71.1426 92.4334 71.3329 92.5925 71.4636 92.7715C71.5971 92.9476 71.7008 93.0925 71.7747 93.2062H71.8599V89.9846H72.8656V98.7119H71.894V97.7062H71.7747C71.7008 97.8255 71.5957 97.9761 71.4594 98.1579C71.323 98.3369 71.1284 98.4974 70.8755 98.6394C70.6227 98.7786 70.2861 98.8482 69.8656 98.8482ZM70.002 97.9448C70.4054 97.9448 70.7463 97.8397 71.0247 97.6295C71.3031 97.4164 71.5147 97.1224 71.6596 96.7474C71.8045 96.3695 71.877 95.9334 71.877 95.4391C71.877 94.9505 71.8059 94.5229 71.6639 94.1565C71.5219 93.7871 71.3116 93.5002 71.0332 93.2957C70.7548 93.0883 70.4111 92.9846 70.002 92.9846C69.5758 92.9846 69.2207 93.094 68.9366 93.3127C68.6554 93.5286 68.4437 93.8226 68.3017 94.1948C68.1625 94.5641 68.0929 94.9789 68.0929 95.4391C68.0929 95.905 68.1639 96.3283 68.3059 96.709C68.4508 97.0869 68.6639 97.388 68.9451 97.6124C69.2292 97.834 69.5815 97.9448 70.002 97.9448ZM81.4012 98.8482C80.8103 98.8482 80.2918 98.7076 79.8458 98.4263C79.4026 98.1451 79.0561 97.7516 78.8061 97.2459C78.5589 96.7403 78.4353 96.1494 78.4353 95.4732C78.4353 94.7914 78.5589 94.1962 78.8061 93.6877C79.0561 93.1792 79.4026 92.7843 79.8458 92.503C80.2918 92.2218 80.8103 92.0812 81.4012 92.0812C81.9921 92.0812 82.5092 92.2218 82.9524 92.503C83.3984 92.7843 83.745 93.1792 83.9921 93.6877C84.2421 94.1962 84.3671 94.7914 84.3671 95.4732C84.3671 96.1494 84.2421 96.7403 83.9921 97.2459C83.745 97.7516 83.3984 98.1451 82.9524 98.4263C82.5092 98.7076 81.9921 98.8482 81.4012 98.8482ZM81.4012 97.9448C81.8501 97.9448 82.2194 97.8298 82.5092 97.5996C82.799 97.3695 83.0134 97.067 83.1526 96.692C83.2918 96.317 83.3615 95.9107 83.3615 95.4732C83.3615 95.0357 83.2918 94.628 83.1526 94.2502C83.0134 93.8724 82.799 93.567 82.5092 93.334C82.2194 93.1011 81.8501 92.9846 81.4012 92.9846C80.9524 92.9846 80.583 93.1011 80.2933 93.334C80.0035 93.567 79.789 93.8724 79.6498 94.2502C79.5106 94.628 79.441 95.0357 79.441 95.4732C79.441 95.9107 79.5106 96.317 79.6498 96.692C79.789 97.067 80.0035 97.3695 80.2933 97.5996C80.583 97.8298 80.9524 97.9448 81.4012 97.9448ZM86.1623 98.7119V92.1664H87.1339V93.155H87.2021C87.3214 92.8312 87.5373 92.5684 87.8498 92.3667C88.1623 92.165 88.5146 92.0641 88.9066 92.0641C88.9805 92.0641 89.0728 92.0655 89.1836 92.0684C89.2944 92.0712 89.3782 92.0755 89.435 92.0812V93.1039C89.4009 93.0954 89.3228 93.0826 89.2006 93.0655C89.0813 93.0457 88.9549 93.0357 88.8214 93.0357C88.5032 93.0357 88.2191 93.1025 87.9691 93.236C87.722 93.3667 87.5259 93.5485 87.381 93.7815C87.239 94.0116 87.168 94.2744 87.168 94.5698V98.7119H86.1623ZM93.1595 98.8482C92.6141 98.8482 92.1325 98.7104 91.7149 98.4349C91.2973 98.1565 90.9706 97.7644 90.7348 97.2587C90.499 96.7502 90.3811 96.1494 90.3811 95.4562C90.3811 94.7687 90.499 94.1721 90.7348 93.6664C90.9706 93.1607 91.2987 92.7701 91.7192 92.4945C92.1396 92.219 92.6254 92.0812 93.1766 92.0812C93.6027 92.0812 93.9393 92.1522 94.1865 92.2942C94.4365 92.4334 94.6268 92.5925 94.7575 92.7715C94.891 92.9476 94.9947 93.0925 95.0686 93.2062H95.1538V89.9846H96.1595V98.7119H95.1879V97.7062H95.0686C94.9947 97.8255 94.8896 97.9761 94.7533 98.1579C94.6169 98.3369 94.4223 98.4974 94.1695 98.6394C93.9166 98.7786 93.58 98.8482 93.1595 98.8482ZM93.2959 97.9448C93.6993 97.9448 94.0402 97.8397 94.3186 97.6295C94.597 97.4164 94.8087 97.1224 94.9535 96.7474C95.0984 96.3695 95.1709 95.9334 95.1709 95.4391C95.1709 94.9505 95.0999 94.5229 94.9578 94.1565C94.8158 93.7871 94.6055 93.5002 94.3271 93.2957C94.0487 93.0883 93.705 92.9846 93.2959 92.9846C92.8697 92.9846 92.5146 93.094 92.2305 93.3127C91.9493 93.5286 91.7376 93.8226 91.5956 94.1948C91.4564 94.5641 91.3868 94.9789 91.3868 95.4391C91.3868 95.905 91.4578 96.3283 91.5999 96.709C91.7447 97.0869 91.9578 97.388 92.2391 97.6124C92.5231 97.834 92.8754 97.9448 93.2959 97.9448ZM101.145 98.8482C100.515 98.8482 99.9706 98.709 99.5133 98.4306C99.0587 98.1494 98.7079 97.7573 98.4607 97.2545C98.2164 96.7488 98.0942 96.1607 98.0942 95.4903C98.0942 94.8198 98.2164 94.2289 98.4607 93.7175C98.7079 93.2033 99.0516 92.8028 99.4919 92.5158C99.9351 92.2261 100.452 92.0812 101.043 92.0812C101.384 92.0812 101.721 92.138 102.053 92.2516C102.385 92.3653 102.688 92.5499 102.961 92.8056C103.233 93.0584 103.451 93.3937 103.613 93.8113C103.775 94.2289 103.856 94.7431 103.856 95.3539V95.78H98.8101V94.9107H102.833C102.833 94.5414 102.759 94.2119 102.611 93.9221C102.466 93.6323 102.259 93.4036 101.989 93.236C101.722 93.0684 101.407 92.9846 101.043 92.9846C100.643 92.9846 100.296 93.084 100.003 93.2829C99.7135 93.4789 99.4905 93.7346 99.3343 94.0499C99.178 94.3653 99.0999 94.7033 99.0999 95.0641V95.6437C99.0999 96.138 99.1851 96.557 99.3556 96.9008C99.5289 97.2417 99.7689 97.5016 100.076 97.6806C100.383 97.8567 100.739 97.9448 101.145 97.9448C101.41 97.9448 101.648 97.9079 101.861 97.834C102.077 97.7573 102.263 97.6437 102.42 97.4931C102.576 97.3397 102.696 97.1494 102.782 96.9221L103.753 97.1948C103.651 97.5244 103.479 97.8141 103.238 98.0641C102.996 98.3113 102.698 98.5045 102.343 98.6437C101.988 98.78 101.589 98.8482 101.145 98.8482ZM105.645 98.7119V92.1664H106.617V93.155H106.685C106.805 92.8312 107.02 92.5684 107.333 92.3667C107.645 92.165 107.998 92.0641 108.39 92.0641C108.464 92.0641 108.556 92.0655 108.667 92.0684C108.778 92.0712 108.861 92.0755 108.918 92.0812V93.1039C108.884 93.0954 108.806 93.0826 108.684 93.0655C108.564 93.0457 108.438 93.0357 108.305 93.0357C107.986 93.0357 107.702 93.1025 107.452 93.236C107.205 93.3667 107.009 93.5485 106.864 93.7815C106.722 94.0116 106.651 94.2744 106.651 94.5698V98.7119H105.645ZM115.007 93.6323L114.103 93.888C114.046 93.7374 113.963 93.5911 113.852 93.4491C113.744 93.3042 113.596 93.1849 113.409 93.0911C113.221 92.9974 112.981 92.9505 112.688 92.9505C112.288 92.9505 111.954 93.0428 111.687 93.2275C111.423 93.4093 111.291 93.6408 111.291 93.9221C111.291 94.1721 111.382 94.3695 111.563 94.5144C111.745 94.6593 112.029 94.78 112.416 94.8766L113.387 95.1153C113.973 95.2573 114.409 95.4746 114.696 95.7673C114.982 96.057 115.126 96.4306 115.126 96.888C115.126 97.263 115.018 97.5982 114.802 97.8937C114.589 98.1891 114.291 98.4221 113.907 98.5925C113.524 98.763 113.078 98.8482 112.569 98.8482C111.902 98.8482 111.349 98.7033 110.911 98.4136C110.474 98.1238 110.197 97.7005 110.08 97.1437L111.035 96.905C111.126 97.2573 111.298 97.5215 111.551 97.6976C111.806 97.8738 112.14 97.9619 112.552 97.9619C113.021 97.9619 113.393 97.8624 113.669 97.6636C113.947 97.4619 114.086 97.2204 114.086 96.9391C114.086 96.7119 114.007 96.5215 113.848 96.3681C113.688 96.2119 113.444 96.0954 113.115 96.0187L112.024 95.763C111.424 95.6209 110.984 95.4008 110.703 95.1025C110.424 94.8013 110.285 94.4249 110.285 93.9732C110.285 93.6039 110.389 93.2772 110.596 92.9931C110.806 92.709 111.092 92.486 111.453 92.3241C111.816 92.1621 112.228 92.0812 112.688 92.0812C113.336 92.0812 113.845 92.2232 114.214 92.5073C114.586 92.7914 114.85 93.1664 115.007 93.6323Z" fill="black" fill-opacity="0.9"/>
</svg>
