<svg width="137" height="118" viewBox="0 0 137 118" fill="none" xmlns="http://www.w3.org/2000/svg">
<rect width="137" height="118" rx="10" fill="#F1ECEB"/>
<path d="M24.3409 59.3182C22.7803 59.3182 21.3864 59.0492 20.1591 58.5114C18.9394 57.9735 17.9735 57.2273 17.2614 56.2727C16.5568 55.3106 16.178 54.197 16.125 52.9318H19.6932C19.7386 53.6212 19.9697 54.2197 20.3864 54.7273C20.8106 55.2273 21.3636 55.6136 22.0455 55.8864C22.7273 56.1591 23.4848 56.2955 24.3182 56.2955C25.2348 56.2955 26.0455 56.1364 26.75 55.8182C27.4621 55.5 28.0189 55.0568 28.4205 54.4886C28.822 53.9129 29.0227 53.25 29.0227 52.5C29.0227 51.7197 28.822 51.0341 28.4205 50.4432C28.0265 49.8447 27.447 49.375 26.6818 49.0341C25.9242 48.6932 25.0076 48.5227 23.9318 48.5227H21.9659V45.6591H23.9318C24.7955 45.6591 25.553 45.5038 26.2045 45.1932C26.8636 44.8826 27.3788 44.4508 27.75 43.8977C28.1212 43.3371 28.3068 42.6818 28.3068 41.9318C28.3068 41.2121 28.1439 40.5871 27.8182 40.0568C27.5 39.5189 27.0455 39.0985 26.4545 38.7955C25.8712 38.4924 25.1818 38.3409 24.3864 38.3409C23.6288 38.3409 22.9205 38.4811 22.2614 38.7614C21.6098 39.0341 21.0795 39.428 20.6705 39.9432C20.2614 40.4508 20.0417 41.0606 20.0114 41.7727H16.6136C16.6515 40.5152 17.0227 39.4091 17.7273 38.4545C18.4394 37.5 19.3788 36.7538 20.5455 36.2159C21.7121 35.678 23.0076 35.4091 24.4318 35.4091C25.9242 35.4091 27.2121 35.7008 28.2955 36.2841C29.3864 36.8598 30.2273 37.6288 30.8182 38.5909C31.4167 39.553 31.7121 40.6061 31.7045 41.75C31.7121 43.053 31.3485 44.1591 30.6136 45.0682C29.8864 45.9773 28.9167 46.5871 27.7045 46.8977V47.0795C29.25 47.3144 30.447 47.928 31.2955 48.9205C32.1515 49.9129 32.5758 51.1439 32.5682 52.6136C32.5758 53.8939 32.2197 55.0417 31.5 56.0568C30.7879 57.072 29.8144 57.8712 28.5795 58.4545C27.3447 59.0303 25.9318 59.3182 24.3409 59.3182ZM45.2259 59.3864C43.4305 59.3788 41.8964 58.9053 40.6236 57.9659C39.3509 57.0265 38.3774 55.6591 37.7032 53.8636C37.0289 52.0682 36.6918 49.9053 36.6918 47.375C36.6918 44.8523 37.0289 42.697 37.7032 40.9091C38.385 39.1212 39.3623 37.7576 40.635 36.8182C41.9153 35.8788 43.4456 35.4091 45.2259 35.4091C47.0062 35.4091 48.5327 35.8826 49.8055 36.8295C51.0782 37.7689 52.0517 39.1326 52.7259 40.9205C53.4077 42.7008 53.7486 44.8523 53.7486 47.375C53.7486 49.9129 53.4115 52.0795 52.7373 53.875C52.063 55.6629 51.0895 57.0303 49.8168 57.9773C48.5441 58.9167 47.0138 59.3864 45.2259 59.3864ZM45.2259 56.3523C46.8017 56.3523 48.0327 55.5833 48.9191 54.0455C49.813 52.5076 50.26 50.2841 50.26 47.375C50.26 45.4432 50.0555 43.8106 49.6464 42.4773C49.2448 41.1364 48.6653 40.1212 47.9077 39.4318C47.1577 38.7348 46.2638 38.3864 45.2259 38.3864C43.6577 38.3864 42.4267 39.1591 41.5327 40.7045C40.6388 42.25 40.188 44.4735 40.1805 47.375C40.1805 49.3144 40.3812 50.9545 40.7827 52.2955C41.1918 53.6288 41.7714 54.6402 42.5214 55.3295C43.2714 56.0114 44.1729 56.3523 45.2259 56.3523ZM64.162 40.7273L58.537 61.625H56.2615L61.8865 40.7273H64.162ZM72.6294 59.2386C71.459 59.2386 70.4135 59.0369 69.4931 58.6335C68.5783 58.2301 67.8539 57.6705 67.3198 56.9545C66.7914 56.233 66.5073 55.3977 66.4675 54.4489H69.1436C69.1777 54.9659 69.351 55.4148 69.6635 55.7955C69.9817 56.1705 70.3965 56.4602 70.9078 56.6648C71.4192 56.8693 71.9874 56.9716 72.6124 56.9716C73.2999 56.9716 73.9078 56.8523 74.4362 56.6136C74.9703 56.375 75.388 56.0426 75.6891 55.6165C75.9902 55.1847 76.1408 54.6875 76.1408 54.125C76.1408 53.5398 75.9902 53.0256 75.6891 52.5824C75.3936 52.1335 74.959 51.7812 74.3851 51.5256C73.8169 51.2699 73.1294 51.142 72.3226 51.142H70.8482V48.9943H72.3226C72.9703 48.9943 73.5385 48.8778 74.0272 48.6449C74.5215 48.4119 74.9078 48.0881 75.1862 47.6733C75.4647 47.2528 75.6039 46.7614 75.6039 46.1989C75.6039 45.6591 75.4817 45.1903 75.2374 44.7926C74.9987 44.3892 74.6578 44.0739 74.2147 43.8466C73.7772 43.6193 73.2601 43.5057 72.6635 43.5057C72.0953 43.5057 71.5641 43.6108 71.0698 43.821C70.5811 44.0256 70.1834 44.321 69.8766 44.7074C69.5698 45.0881 69.405 45.5455 69.3823 46.0795H66.834C66.8624 45.1364 67.1408 44.3068 67.6692 43.5909C68.2033 42.875 68.9078 42.3153 69.7828 41.9119C70.6578 41.5085 71.6294 41.3068 72.6976 41.3068C73.8169 41.3068 74.7828 41.5256 75.5953 41.9631C76.4135 42.3949 77.0442 42.9716 77.4874 43.6932C77.9362 44.4148 78.1578 45.2045 78.1522 46.0625C78.1578 47.0398 77.8851 47.8693 77.334 48.5511C76.7885 49.233 76.0612 49.6903 75.1522 49.9233V50.0597C76.3112 50.2358 77.209 50.696 77.8453 51.4403C78.4874 52.1847 78.8056 53.108 78.7999 54.2102C78.8056 55.1705 78.5385 56.0312 77.9987 56.7926C77.4647 57.554 76.7345 58.1534 75.8084 58.5909C74.8823 59.0227 73.8226 59.2386 72.6294 59.2386ZM88.0428 59.2386C86.9747 59.2386 86.0144 59.0341 85.1622 58.625C84.3156 58.2102 83.6394 57.642 83.1338 56.9205C82.6281 56.1989 82.3582 55.375 82.3241 54.4489H84.8809C84.9434 55.1989 85.2758 55.8153 85.8781 56.2983C86.4803 56.7812 87.2019 57.0227 88.0428 57.0227C88.7133 57.0227 89.307 56.8693 89.8241 56.5625C90.3468 56.25 90.7559 55.821 91.0514 55.2756C91.3525 54.7301 91.5031 54.108 91.5031 53.4091C91.5031 52.6989 91.3497 52.0653 91.0428 51.5085C90.736 50.9517 90.3127 50.5142 89.773 50.196C89.2389 49.8778 88.6252 49.7159 87.932 49.7102C87.4036 49.7102 86.8724 49.8011 86.3383 49.983C85.8042 50.1648 85.3724 50.4034 85.0428 50.6989L82.6309 50.3409L83.611 41.5455H93.2076V43.804H85.8014L85.2474 48.6875H85.3497C85.6906 48.358 86.1423 48.0824 86.7048 47.8608C87.273 47.6392 87.8809 47.5284 88.5286 47.5284C89.5911 47.5284 90.5372 47.7812 91.3667 48.2869C92.2019 48.7926 92.8582 49.483 93.3355 50.358C93.8184 51.2273 94.057 52.2273 94.0514 53.358C94.057 54.4886 93.8014 55.4972 93.2843 56.3835C92.773 57.2699 92.0627 57.9687 91.1536 58.4801C90.2502 58.9858 89.2133 59.2386 88.0428 59.2386Z" fill="#817B7A"/>
<path d="M14.5795 72.2102V71.2727H21.125V72.2102H18.3807V80H17.3239V72.2102H14.5795ZM24.5895 80.1364C23.9986 80.1364 23.4802 79.9957 23.0341 79.7145C22.591 79.4332 22.2444 79.0398 21.9944 78.5341C21.7472 78.0284 21.6236 77.4375 21.6236 76.7614C21.6236 76.0795 21.7472 75.4844 21.9944 74.9759C22.2444 74.4673 22.591 74.0724 23.0341 73.7912C23.4802 73.5099 23.9986 73.3693 24.5895 73.3693C25.1805 73.3693 25.6975 73.5099 26.1407 73.7912C26.5867 74.0724 26.9333 74.4673 27.1805 74.9759C27.4305 75.4844 27.5555 76.0795 27.5555 76.7614C27.5555 77.4375 27.4305 78.0284 27.1805 78.5341C26.9333 79.0398 26.5867 79.4332 26.1407 79.7145C25.6975 79.9957 25.1805 80.1364 24.5895 80.1364ZM24.5895 79.233C25.0384 79.233 25.4077 79.1179 25.6975 78.8878C25.9873 78.6577 26.2018 78.3551 26.341 77.9801C26.4802 77.6051 26.5498 77.1989 26.5498 76.7614C26.5498 76.3239 26.4802 75.9162 26.341 75.5384C26.2018 75.1605 25.9873 74.8551 25.6975 74.6222C25.4077 74.3892 25.0384 74.2727 24.5895 74.2727C24.1407 74.2727 23.7714 74.3892 23.4816 74.6222C23.1918 74.8551 22.9773 75.1605 22.8381 75.5384C22.6989 75.9162 22.6293 76.3239 22.6293 76.7614C22.6293 77.1989 22.6989 77.6051 22.8381 77.9801C22.9773 78.3551 23.1918 78.6577 23.4816 78.8878C23.7714 79.1179 24.1407 79.233 24.5895 79.233ZM32.1972 73.4545V74.3068H28.8052V73.4545H32.1972ZM29.7938 71.8864H30.7995V78.125C30.7995 78.4091 30.8407 78.6222 30.9231 78.7642C31.0083 78.9034 31.1162 78.9972 31.2469 79.0455C31.3804 79.0909 31.5211 79.1136 31.6688 79.1136C31.7796 79.1136 31.8705 79.108 31.9415 79.0966C32.0125 79.0824 32.0694 79.071 32.112 79.0625L32.3165 79.9659C32.2483 79.9915 32.1532 80.017 32.031 80.0426C31.9089 80.071 31.754 80.0852 31.5665 80.0852C31.2824 80.0852 31.004 80.0241 30.7313 79.902C30.4614 79.7798 30.237 79.5938 30.058 79.3438C29.8819 79.0938 29.7938 78.7784 29.7938 78.3977V71.8864ZM35.8961 80.1534C35.4814 80.1534 35.1049 80.0753 34.7669 79.919C34.4288 79.7599 34.1603 79.5312 33.9615 79.233C33.7626 78.9318 33.6632 78.5682 33.6632 78.142C33.6632 77.767 33.737 77.4631 33.8848 77.2301C34.0325 76.9943 34.2299 76.8097 34.4771 76.6761C34.7242 76.5426 34.997 76.4432 35.2953 76.3778C35.5964 76.3097 35.899 76.2557 36.2029 76.2159C36.6007 76.1648 36.9231 76.1264 37.1703 76.1009C37.4203 76.0724 37.6021 76.0256 37.7157 75.9602C37.8322 75.8949 37.8904 75.7812 37.8904 75.6193V75.5852C37.8904 75.1648 37.7754 74.8381 37.5453 74.6051C37.318 74.3722 36.9728 74.2557 36.5098 74.2557C36.0296 74.2557 35.6532 74.3608 35.3805 74.571C35.1078 74.7812 34.916 75.0057 34.8052 75.2443L33.8507 74.9034C34.0211 74.5057 34.2484 74.196 34.5325 73.9744C34.8194 73.75 35.1319 73.5937 35.47 73.5057C35.8109 73.4148 36.1461 73.3693 36.4757 73.3693C36.6859 73.3693 36.9274 73.3949 37.2001 73.446C37.4757 73.4943 37.7413 73.5952 37.997 73.7486C38.2555 73.902 38.47 74.1335 38.6404 74.4432C38.8109 74.7528 38.8961 75.1676 38.8961 75.6875V80H37.8904V79.1136H37.8393C37.7711 79.2557 37.6575 79.4077 37.4984 79.5696C37.3393 79.7315 37.1277 79.8693 36.8635 79.983C36.5992 80.0966 36.2768 80.1534 35.8961 80.1534ZM36.0495 79.25C36.4473 79.25 36.7825 79.1719 37.0552 79.0156C37.3308 78.8594 37.5382 78.6577 37.6774 78.4105C37.8194 78.1634 37.8904 77.9034 37.8904 77.6307V76.7102C37.8478 76.7614 37.7541 76.8082 37.6092 76.8509C37.4671 76.8906 37.3024 76.9261 37.1149 76.9574C36.9302 76.9858 36.7498 77.0114 36.5737 77.0341C36.4004 77.054 36.2598 77.071 36.1518 77.0852C35.8904 77.1193 35.6461 77.1747 35.4189 77.2514C35.1944 77.3253 35.0126 77.4375 34.8734 77.5881C34.737 77.7358 34.6689 77.9375 34.6689 78.1932C34.6689 78.5426 34.7981 78.8068 35.0566 78.9858C35.318 79.1619 35.649 79.25 36.0495 79.25ZM41.9974 71.2727V80H40.9917V71.2727H41.9974ZM50.3935 80.1364C49.7798 80.1364 49.2514 79.9915 48.8082 79.7017C48.365 79.4119 48.0241 79.0128 47.7855 78.5043C47.5469 77.9957 47.4275 77.4148 47.4275 76.7614C47.4275 76.0966 47.5497 75.5099 47.794 75.0014C48.0412 74.4901 48.3849 74.0909 48.8253 73.804C49.2685 73.5142 49.7855 73.3693 50.3764 73.3693C50.8366 73.3693 51.2514 73.4545 51.6207 73.625C51.99 73.7955 52.2926 74.0341 52.5284 74.3409C52.7642 74.6477 52.9105 75.0057 52.9673 75.4148H51.9616C51.8849 75.1165 51.7145 74.8523 51.4503 74.6222C51.1889 74.3892 50.8366 74.2727 50.3935 74.2727C50.0014 74.2727 49.6577 74.375 49.3622 74.5795C49.0696 74.7812 48.8409 75.0668 48.6761 75.4361C48.5142 75.8026 48.4332 76.233 48.4332 76.7273C48.4332 77.233 48.5128 77.6733 48.6719 78.0483C48.8338 78.4233 49.0611 78.7145 49.3537 78.9219C49.6491 79.1293 49.9957 79.233 50.3935 79.233C50.6548 79.233 50.892 79.1875 51.1051 79.0966C51.3182 79.0057 51.4986 78.875 51.6463 78.7045C51.794 78.5341 51.8991 78.3295 51.9616 78.0909H52.9673C52.9105 78.4773 52.7699 78.8253 52.5454 79.1349C52.3239 79.4418 52.0298 79.6861 51.6633 79.8679C51.2997 80.0469 50.8764 80.1364 50.3935 80.1364ZM56.6236 80.1534C56.2088 80.1534 55.8324 80.0753 55.4944 79.919C55.1563 79.7599 54.8878 79.5312 54.689 79.233C54.4901 78.9318 54.3907 78.5682 54.3907 78.142C54.3907 77.767 54.4645 77.4631 54.6123 77.2301C54.76 76.9943 54.9574 76.8097 55.2046 76.6761C55.4517 76.5426 55.7245 76.4432 56.0228 76.3778C56.3239 76.3097 56.6265 76.2557 56.9304 76.2159C57.3282 76.1648 57.6506 76.1264 57.8978 76.1009C58.1478 76.0724 58.3296 76.0256 58.4432 75.9602C58.5597 75.8949 58.6179 75.7812 58.6179 75.6193V75.5852C58.6179 75.1648 58.5029 74.8381 58.2728 74.6051C58.0455 74.3722 57.7003 74.2557 57.2373 74.2557C56.7571 74.2557 56.3807 74.3608 56.108 74.571C55.8353 74.7812 55.6435 75.0057 55.5327 75.2443L54.5782 74.9034C54.7486 74.5057 54.9759 74.196 55.26 73.9744C55.5469 73.75 55.8594 73.5937 56.1975 73.5057C56.5384 73.4148 56.8736 73.3693 57.2032 73.3693C57.4134 73.3693 57.6549 73.3949 57.9276 73.446C58.2032 73.4943 58.4688 73.5952 58.7245 73.7486C58.983 73.902 59.1975 74.1335 59.3679 74.4432C59.5384 74.7528 59.6236 75.1676 59.6236 75.6875V80H58.6179V79.1136H58.5668C58.4986 79.2557 58.385 79.4077 58.2259 79.5696C58.0668 79.7315 57.8552 79.8693 57.591 79.983C57.3267 80.0966 57.0043 80.1534 56.6236 80.1534ZM56.777 79.25C57.1748 79.25 57.51 79.1719 57.7827 79.0156C58.0583 78.8594 58.2657 78.6577 58.4049 78.4105C58.5469 78.1634 58.6179 77.9034 58.6179 77.6307V76.7102C58.5753 76.7614 58.4816 76.8082 58.3367 76.8509C58.1946 76.8906 58.0299 76.9261 57.8424 76.9574C57.6577 76.9858 57.4773 77.0114 57.3012 77.0341C57.1279 77.054 56.9873 77.071 56.8793 77.0852C56.6179 77.1193 56.3736 77.1747 56.1463 77.2514C55.9219 77.3253 55.7401 77.4375 55.6009 77.5881C55.4645 77.7358 55.3963 77.9375 55.3963 78.1932C55.3963 78.5426 55.5256 78.8068 55.7841 78.9858C56.0455 79.1619 56.3765 79.25 56.777 79.25ZM66.3556 74.9205L65.4522 75.1761C65.3953 75.0256 65.3115 74.8793 65.2007 74.7372C65.0928 74.5923 64.9451 74.473 64.7576 74.3793C64.5701 74.2855 64.33 74.2386 64.0374 74.2386C63.6368 74.2386 63.303 74.331 63.036 74.5156C62.7718 74.6974 62.6397 74.929 62.6397 75.2102C62.6397 75.4602 62.7306 75.6577 62.9124 75.8026C63.0942 75.9474 63.3783 76.0682 63.7647 76.1648L64.7363 76.4034C65.3215 76.5455 65.7576 76.7628 66.0445 77.0554C66.3314 77.3452 66.4749 77.7187 66.4749 78.1761C66.4749 78.5511 66.3669 78.8864 66.151 79.1818C65.938 79.4773 65.6397 79.7102 65.2561 79.8807C64.8726 80.0511 64.4266 80.1364 63.9181 80.1364C63.2505 80.1364 62.6979 79.9915 62.2604 79.7017C61.8229 79.4119 61.5459 78.9886 61.4294 78.4318L62.384 78.1932C62.4749 78.5455 62.6468 78.8097 62.8996 78.9858C63.1553 79.1619 63.4891 79.25 63.901 79.25C64.3698 79.25 64.7419 79.1506 65.0175 78.9517C65.2959 78.75 65.4351 78.5085 65.4351 78.2273C65.4351 78 65.3556 77.8097 65.1965 77.6562C65.0374 77.5 64.7931 77.3835 64.4635 77.3068L63.3726 77.0511C62.7732 76.9091 62.3328 76.6889 62.0516 76.3906C61.7732 76.0895 61.634 75.7131 61.634 75.2614C61.634 74.892 61.7377 74.5653 61.9451 74.2812C62.1553 73.9972 62.4408 73.7741 62.8016 73.6122C63.1652 73.4503 63.5772 73.3693 64.0374 73.3693C64.6851 73.3693 65.1936 73.5114 65.563 73.7955C65.9351 74.0795 66.1993 74.4545 66.3556 74.9205ZM70.9931 80.1364C70.3624 80.1364 69.8183 79.9972 69.361 79.7188C68.9064 79.4375 68.5556 79.0455 68.3084 78.5426C68.0641 78.0369 67.9419 77.4489 67.9419 76.7784C67.9419 76.108 68.0641 75.517 68.3084 75.0057C68.5556 74.4915 68.8993 74.0909 69.3396 73.804C69.7828 73.5142 70.2999 73.3693 70.8908 73.3693C71.2317 73.3693 71.5683 73.4261 71.9007 73.5398C72.2331 73.6534 72.5357 73.8381 72.8084 74.0938C73.0811 74.3466 73.2985 74.6818 73.4604 75.0994C73.6223 75.517 73.7033 76.0312 73.7033 76.642V77.0682H68.6578V76.1989H72.6806C72.6806 75.8295 72.6067 75.5 72.459 75.2102C72.3141 74.9205 72.1067 74.6918 71.8368 74.5241C71.5698 74.3565 71.2544 74.2727 70.8908 74.2727C70.4902 74.2727 70.1436 74.3722 69.851 74.571C69.5612 74.767 69.3382 75.0227 69.182 75.3381C69.0257 75.6534 68.9476 75.9915 68.9476 76.3523V76.9318C68.9476 77.4261 69.0328 77.8452 69.2033 78.1889C69.3766 78.5298 69.6166 78.7898 69.9235 78.9688C70.2303 79.1449 70.5868 79.233 70.9931 79.233C71.2573 79.233 71.4959 79.196 71.709 79.1222C71.9249 79.0455 72.111 78.9318 72.2672 78.7812C72.4235 78.6278 72.5442 78.4375 72.6294 78.2102L73.601 78.483C73.4987 78.8125 73.3269 79.1023 73.0854 79.3523C72.8439 79.5994 72.5456 79.7926 72.1905 79.9318C71.8354 80.0682 71.4362 80.1364 70.9931 80.1364ZM80.1295 74.9205L79.2261 75.1761C79.1692 75.0256 79.0854 74.8793 78.9746 74.7372C78.8667 74.5923 78.719 74.473 78.5315 74.3793C78.344 74.2855 78.1039 74.2386 77.8113 74.2386C77.4107 74.2386 77.0769 74.331 76.8099 74.5156C76.5457 74.6974 76.4136 74.929 76.4136 75.2102C76.4136 75.4602 76.5045 75.6577 76.6863 75.8026C76.8681 75.9474 77.1522 76.0682 77.5386 76.1648L78.5102 76.4034C79.0954 76.5455 79.5315 76.7628 79.8184 77.0554C80.1053 77.3452 80.2488 77.7187 80.2488 78.1761C80.2488 78.5511 80.1408 78.8864 79.9249 79.1818C79.7119 79.4773 79.4136 79.7102 79.03 79.8807C78.6465 80.0511 78.2005 80.1364 77.692 80.1364C77.0244 80.1364 76.4718 79.9915 76.0343 79.7017C75.5968 79.4119 75.3198 78.9886 75.2033 78.4318L76.1579 78.1932C76.2488 78.5455 76.4207 78.8097 76.6735 78.9858C76.9292 79.1619 77.263 79.25 77.6749 79.25C78.1437 79.25 78.5158 79.1506 78.7914 78.9517C79.0698 78.75 79.209 78.5085 79.209 78.2273C79.209 78 79.1295 77.8097 78.9704 77.6562C78.8113 77.5 78.567 77.3835 78.2374 77.3068L77.1465 77.0511C76.5471 76.9091 76.1067 76.6889 75.8255 76.3906C75.5471 76.0895 75.4079 75.7131 75.4079 75.2614C75.4079 74.892 75.5116 74.5653 75.719 74.2812C75.9292 73.9972 76.2147 73.7741 76.5755 73.6122C76.9391 73.4503 77.3511 73.3693 77.8113 73.3693C78.459 73.3693 78.9675 73.5114 79.3369 73.7955C79.709 74.0795 79.9732 74.4545 80.1295 74.9205ZM17.392 95.1364C16.8466 95.1364 16.3651 94.9986 15.9474 94.723C15.5298 94.4446 15.2031 94.0526 14.9673 93.5469C14.7315 93.0384 14.6136 92.4375 14.6136 91.7443C14.6136 91.0568 14.7315 90.4602 14.9673 89.9545C15.2031 89.4489 15.5313 89.0582 15.9517 88.7827C16.3722 88.5071 16.858 88.3693 17.4091 88.3693C17.8352 88.3693 18.1719 88.4403 18.419 88.5824C18.669 88.7216 18.8594 88.8807 18.9901 89.0597C19.1236 89.2358 19.2273 89.3807 19.3011 89.4943H19.3864V86.2727H20.392V95H19.4205V93.9943H19.3011C19.2273 94.1136 19.1222 94.2642 18.9858 94.446C18.8494 94.625 18.6548 94.7855 18.402 94.9276C18.1491 95.0668 17.8125 95.1364 17.392 95.1364ZM17.5284 94.233C17.9318 94.233 18.2727 94.1278 18.5511 93.9176C18.8295 93.7045 19.0412 93.4105 19.1861 93.0355C19.331 92.6577 19.4034 92.2216 19.4034 91.7273C19.4034 91.2386 19.3324 90.8111 19.1903 90.4446C19.0483 90.0753 18.8381 89.7884 18.5597 89.5838C18.2813 89.3764 17.9375 89.2727 17.5284 89.2727C17.1023 89.2727 16.7472 89.3821 16.4631 89.6009C16.1818 89.8168 15.9702 90.1108 15.8281 90.483C15.6889 90.8523 15.6193 91.267 15.6193 91.7273C15.6193 92.1932 15.6903 92.6165 15.8324 92.9972C15.9773 93.375 16.1903 93.6761 16.4716 93.9006C16.7557 94.1222 17.108 94.233 17.5284 94.233ZM25.3779 95.1364C24.7472 95.1364 24.2032 94.9972 23.7458 94.7188C23.2913 94.4375 22.9404 94.0455 22.6932 93.5426C22.4489 93.0369 22.3268 92.4489 22.3268 91.7784C22.3268 91.108 22.4489 90.517 22.6932 90.0057C22.9404 89.4915 23.2841 89.0909 23.7245 88.804C24.1677 88.5142 24.6847 88.3693 25.2756 88.3693C25.6165 88.3693 25.9532 88.4261 26.2856 88.5398C26.618 88.6534 26.9205 88.8381 27.1932 89.0938C27.466 89.3466 27.6833 89.6818 27.8452 90.0994C28.0072 90.517 28.0881 91.0312 28.0881 91.642V92.0682H23.0427V91.1989H27.0654C27.0654 90.8295 26.9915 90.5 26.8438 90.2102C26.6989 89.9205 26.4915 89.6918 26.2216 89.5241C25.9546 89.3565 25.6393 89.2727 25.2756 89.2727C24.8751 89.2727 24.5285 89.3722 24.2359 89.571C23.9461 89.767 23.7231 90.0227 23.5668 90.3381C23.4106 90.6534 23.3324 90.9915 23.3324 91.3523V91.9318C23.3324 92.4261 23.4177 92.8452 23.5881 93.1889C23.7614 93.5298 24.0015 93.7898 24.3083 93.9688C24.6151 94.1449 24.9716 94.233 25.3779 94.233C25.6421 94.233 25.8807 94.196 26.0938 94.1222C26.3097 94.0455 26.4958 93.9318 26.652 93.7812C26.8083 93.6278 26.929 93.4375 27.0143 93.2102L27.9859 93.483C27.8836 93.8125 27.7117 94.1023 27.4702 94.3523C27.2288 94.5994 26.9305 94.7926 26.5753 94.9318C26.2202 95.0682 25.8211 95.1364 25.3779 95.1364ZM30.8836 86.2727V95H29.878V86.2727H30.8836ZM32.9856 95V88.4545H33.9913V95H32.9856ZM33.497 87.3636C33.301 87.3636 33.1319 87.2969 32.9899 87.1634C32.8507 87.0298 32.7811 86.8693 32.7811 86.6818C32.7811 86.4943 32.8507 86.3338 32.9899 86.2003C33.1319 86.0668 33.301 86 33.497 86C33.693 86 33.8606 86.0668 33.9998 86.2003C34.1419 86.3338 34.2129 86.4943 34.2129 86.6818C34.2129 86.8693 34.1419 87.0298 33.9998 87.1634C33.8606 87.2969 33.693 87.3636 33.497 87.3636ZM41.4455 88.4545L39.0251 95H38.0024L35.5819 88.4545H36.6728L38.4796 93.6705H38.5478L40.3546 88.4545H41.4455ZM45.5429 95.1364C44.9122 95.1364 44.3682 94.9972 43.9108 94.7188C43.4562 94.4375 43.1054 94.0455 42.8582 93.5426C42.6139 93.0369 42.4918 92.4489 42.4918 91.7784C42.4918 91.108 42.6139 90.517 42.8582 90.0057C43.1054 89.4915 43.4491 89.0909 43.8895 88.804C44.3327 88.5142 44.8497 88.3693 45.4406 88.3693C45.7815 88.3693 46.1182 88.4261 46.4506 88.5398C46.783 88.6534 47.0855 88.8381 47.3582 89.0938C47.631 89.3466 47.8483 89.6818 48.0102 90.0994C48.1722 90.517 48.2531 91.0312 48.2531 91.642V92.0682H43.2077V91.1989H47.2304C47.2304 90.8295 47.1565 90.5 47.0088 90.2102C46.8639 89.9205 46.6565 89.6918 46.3866 89.5241C46.1196 89.3565 45.8043 89.2727 45.4406 89.2727C45.0401 89.2727 44.6935 89.3722 44.4009 89.571C44.1111 89.767 43.8881 90.0227 43.7318 90.3381C43.5756 90.6534 43.4974 90.9915 43.4974 91.3523V91.9318C43.4974 92.4261 43.5827 92.8452 43.7531 93.1889C43.9264 93.5298 44.1665 93.7898 44.4733 93.9688C44.7801 94.1449 45.1366 94.233 45.5429 94.233C45.8071 94.233 46.0457 94.196 46.2588 94.1222C46.4747 94.0455 46.6608 93.9318 46.817 93.7812C46.9733 93.6278 47.094 93.4375 47.1793 93.2102L48.1509 93.483C48.0486 93.8125 47.8767 94.1023 47.6352 94.3523C47.3937 94.5994 47.0955 94.7926 46.7403 94.9318C46.3852 95.0682 45.9861 95.1364 45.5429 95.1364ZM50.043 95V88.4545H51.0145V89.4432H51.0827C51.202 89.1193 51.418 88.8565 51.7305 88.6548C52.043 88.4531 52.3952 88.3523 52.7873 88.3523C52.8611 88.3523 52.9535 88.3537 53.0643 88.3565C53.1751 88.3594 53.2589 88.3636 53.3157 88.3693V89.392C53.2816 89.3835 53.2035 89.3707 53.0813 89.3537C52.962 89.3338 52.8356 89.3239 52.702 89.3239C52.3839 89.3239 52.0998 89.3906 51.8498 89.5241C51.6026 89.6548 51.4066 89.8366 51.2617 90.0696C51.1197 90.2997 51.0486 90.5625 51.0486 90.858V95H50.043ZM57.3129 95.1364C56.6822 95.1364 56.1382 94.9972 55.6808 94.7188C55.2262 94.4375 54.8754 94.0455 54.6282 93.5426C54.3839 93.0369 54.2618 92.4489 54.2618 91.7784C54.2618 91.108 54.3839 90.517 54.6282 90.0057C54.8754 89.4915 55.2191 89.0909 55.6595 88.804C56.1027 88.5142 56.6197 88.3693 57.2106 88.3693C57.5515 88.3693 57.8882 88.4261 58.2206 88.5398C58.553 88.6534 58.8555 88.8381 59.1282 89.0938C59.401 89.3466 59.6183 89.6818 59.7802 90.0994C59.9422 90.517 60.0231 91.0312 60.0231 91.642V92.0682H54.9777V91.1989H59.0004C59.0004 90.8295 58.9265 90.5 58.7788 90.2102C58.6339 89.9205 58.4265 89.6918 58.1566 89.5241C57.8896 89.3565 57.5743 89.2727 57.2106 89.2727C56.8101 89.2727 56.4635 89.3722 56.1709 89.571C55.8811 89.767 55.6581 90.0227 55.5018 90.3381C55.3456 90.6534 55.2674 90.9915 55.2674 91.3523V91.9318C55.2674 92.4261 55.3527 92.8452 55.5231 93.1889C55.6964 93.5298 55.9365 93.7898 56.2433 93.9688C56.5501 94.1449 56.9066 94.233 57.3129 94.233C57.5771 94.233 57.8157 94.196 58.0288 94.1222C58.2447 94.0455 58.4308 93.9318 58.587 93.7812C58.7433 93.6278 58.864 93.4375 58.9493 93.2102L59.9209 93.483C59.8186 93.8125 59.6467 94.1023 59.4052 94.3523C59.1637 94.5994 58.8655 94.7926 58.5103 94.9318C58.1552 95.0682 57.7561 95.1364 57.3129 95.1364ZM64.2845 95.1364C63.7391 95.1364 63.2576 94.9986 62.8399 94.723C62.4223 94.4446 62.0956 94.0526 61.8598 93.5469C61.624 93.0384 61.5061 92.4375 61.5061 91.7443C61.5061 91.0568 61.624 90.4602 61.8598 89.9545C62.0956 89.4489 62.4238 89.0582 62.8442 88.7827C63.2647 88.5071 63.7505 88.3693 64.3016 88.3693C64.7277 88.3693 65.0644 88.4403 65.3115 88.5824C65.5615 88.7216 65.7519 88.8807 65.8826 89.0597C66.0161 89.2358 66.1198 89.3807 66.1936 89.4943H66.2789V86.2727H67.2845V95H66.313V93.9943H66.1936C66.1198 94.1136 66.0147 94.2642 65.8783 94.446C65.7419 94.625 65.5473 94.7855 65.2945 94.9276C65.0416 95.0668 64.705 95.1364 64.2845 95.1364ZM64.4209 94.233C64.8243 94.233 65.1652 94.1278 65.4436 93.9176C65.722 93.7045 65.9337 93.4105 66.0786 93.0355C66.2235 92.6577 66.2959 92.2216 66.2959 91.7273C66.2959 91.2386 66.2249 90.8111 66.0828 90.4446C65.9408 90.0753 65.7306 89.7884 65.4522 89.5838C65.1738 89.3764 64.83 89.2727 64.4209 89.2727C63.9948 89.2727 63.6397 89.3821 63.3556 89.6009C63.0743 89.8168 62.8627 90.1108 62.7206 90.483C62.5814 90.8523 62.5118 91.267 62.5118 91.7273C62.5118 92.1932 62.5828 92.6165 62.7249 92.9972C62.8698 93.375 63.0828 93.6761 63.3641 93.9006C63.6482 94.1222 64.0005 94.233 64.4209 94.233Z" fill="black" fill-opacity="0.9"/>
</svg>
